<svg xmlns="http://www.w3.org/2000/svg" xmlns:xlink="http://www.w3.org/1999/xlink" version="1.1" viewBox="0 0 2888 4400" style="background: #ffffff"><defs><style>@import url(https://fonts.googleapis.com/css?family=Open+Sans:400,700);</style></defs><defs joint-selector="defs"></defs><g joint-selector="layers"  transform="matrix(1,0,0,1,0,0)"><g ></g><g ><!--z-index:1--><!--z-index:2--><!--z-index:3--><!--z-index:4--><!--z-index:5--><!--z-index:6--><!--z-index:7--><!--z-index:8--><!--z-index:9--><!--z-index:10--><!--z-index:11--><!--z-index:12--><!--z-index:13--><!--z-index:14--><!--z-index:15--><!--z-index:16--><!--z-index:17--><!--z-index:18--><!--z-index:19--><!--z-index:20--><!--z-index:21--><!--z-index:22--><!--z-index:23--><!--z-index:24--><!--z-index:25--><!--z-index:26--><!--z-index:27--><!--z-index:28--><!--z-index:29--><g   id="j_2"  transform="translate(20,4363.6)"><g id="v-5"><text  id="v-6" font-size="22px" xml:space="preserve" y="0.8em" font-weight="normal" text-anchor="start" fill="#aaaaaa" pointer-events="none" display="block" font-family="Open Sans"><tspan dy="0"  display="block">Saturday, July 12, 2025 at 10:02 AM West Africa Standard Time</tspan></text></g></g><!--z-index:30--><g   id="j_1"  transform="translate(20,4320.400000000001)"><g id="v-3"><text  id="v-4" font-size="36px" xml:space="preserve" y="0.8em" font-weight="normal" text-anchor="start" fill="#000000" pointer-events="none" display="block" font-family="Open Sans"><tspan dy="0"  display="block">[System Context] platform admin</tspan></text></g></g><!--z-index:31--><g   id="j_3"  transform="translate(2028,165)" style=""><g  id="v-7" style="opacity: 1;"><rect  x="0" y="160" width="400" height="240" rx="70" id="v-9" stroke="#0f5eaa" stroke-width="2" pointer-events="visiblePainted" fill="#1168bd" style="fill: rgb(17, 104, 189); stroke: rgb(15, 94, 170);"></rect><circle  cx="200" cy="88.88888888888889" r="88.88888888888889" id="v-8" stroke="#0f5eaa" stroke-width="2" pointer-events="visiblePainted" fill="#1168bd" style="fill: rgb(17, 104, 189); stroke: rgb(15, 94, 170);"></circle><line  x1="80" y1="266.6666666666667" x2="80" y2="400" id="v-15" stroke="#0f5eaa" stroke-width="2" style="stroke: rgb(15, 94, 170);"></line><line  x1="320" y1="266.6666666666667" x2="320" y2="400" id="v-16" stroke="#0f5eaa" stroke-width="2" style="stroke: rgb(15, 94, 170);"></line><text  id="v-10" font-size="32" xml:space="preserve" y="0.8em" font-weight="bold" text-anchor="middle" pointer-events="visible" font-family="Open Sans" fill="#ffffff" transform="matrix(1,0,0,1,200,254.3)" style="fill: rgb(255, 255, 255);"><tspan dy="0" >platform admin</tspan></text><text  id="v-11" font-size="15" xml:space="preserve" y="0.8em" text-anchor="middle" font-family="Open Sans" fill="#ffffff" transform="matrix(1,0,0,1,200,292.7)" style="fill: rgb(255, 255, 255);"><tspan dy="0" >[Software System]</tspan></text><text  id="v-12" font-size="22" xml:space="preserve" display="none" y="0.8em" text-anchor="middle" font-family="Open Sans" fill="#ffffff" transform="matrix(1,0,0,1,200,310.7)" style="fill: rgb(255, 255, 255);"><tspan dy="0" style="fill-opacity: 0; stroke-opacity: 0;" >-</tspan></text><g  id="v-13" font-weight="normal" text-anchor="middle" color="#ffffff" transform="matrix(1,0,0,1,197.5,368)" display="none" style="fill: rgb(255, 255, 255);"><g ></g><g ></g><g ></g><g ></g></g><image  id="v-14"></image></g></g><!--z-index:32--><g   id="j_4"  transform="translate(2003,865)" style=""><g  id="v-20" style="opacity: 1;"><rect  id="v-21" rx="10" ry="10" stroke="#0773af" stroke-width="7" pointer-events="visiblePainted" fill="#e6f2ff" x="10" y="0" width="150" height="75" style="fill: rgb(230, 242, 255); stroke: rgb(7, 115, 175);"></rect><rect  id="v-22" rx="5" ry="5" stroke="#0773af" stroke-width="7" pointer-events="visiblePainted" fill="#e6f2ff" x="0" y="37.5" width="450" height="262.5" style="fill: rgb(230, 242, 255); stroke: rgb(7, 115, 175);"></rect><text  id="v-23" font-size="34" xml:space="preserve" y="0.8em" font-weight="bold" text-anchor="middle" pointer-events="visible" font-family="Open Sans" fill="#0773af" transform="matrix(1,0,0,1,225,140.7)" style="fill: rgb(7, 115, 175);"><tspan dy="0" >platform &amp; runtime</tspan></text><text  id="v-24" font-size="17" xml:space="preserve" y="0.8em" text-anchor="middle" font-family="Open Sans" fill="#0773af" transform="matrix(1,0,0,1,225,181.5)" style="fill: rgb(7, 115, 175);"><tspan dy="0" >[Software System]</tspan></text><text  id="v-25" font-size="24" xml:space="preserve" display="none" y="0.8em" text-anchor="middle" font-family="Open Sans" fill="#0773af" transform="matrix(1,0,0,1,225,201.9)" style="fill: rgb(7, 115, 175);"><tspan dy="0" style="fill-opacity: 0; stroke-opacity: 0;" >-</tspan></text><g  id="v-26" font-weight="normal" text-anchor="middle" color="#0773af" transform="matrix(1,0,0,1,222.5,268)" display="none" style="fill: rgb(7, 115, 175);"><g ></g><g ></g><g ></g><g ></g></g><image  id="v-27"></image></g></g><!--z-index:33--><g   id="j_5"  transform="translate(1324,2665)" style=""><g  id="v-28" style="opacity: 1;"><rect  id="v-29" rx="10" ry="10" stroke="#0773af" stroke-width="7" pointer-events="visiblePainted" fill="#e6f2ff" x="10" y="0" width="150" height="75" style="fill: rgb(230, 242, 255); stroke: rgb(7, 115, 175);"></rect><rect  id="v-30" rx="5" ry="5" stroke="#0773af" stroke-width="7" pointer-events="visiblePainted" fill="#e6f2ff" x="0" y="37.5" width="450" height="262.5" style="fill: rgb(230, 242, 255); stroke: rgb(7, 115, 175);"></rect><text  id="v-31" font-size="34" xml:space="preserve" y="0.8em" font-weight="bold" text-anchor="middle" pointer-events="visible" font-family="Open Sans" fill="#0773af" transform="matrix(1,0,0,1,225,140.7)" style="fill: rgb(7, 115, 175);"><tspan dy="0" >access control</tspan></text><text  id="v-32" font-size="17" xml:space="preserve" y="0.8em" text-anchor="middle" font-family="Open Sans" fill="#0773af" transform="matrix(1,0,0,1,225,181.5)" style="fill: rgb(7, 115, 175);"><tspan dy="0" >[Software System]</tspan></text><text  id="v-33" font-size="24" xml:space="preserve" display="none" y="0.8em" text-anchor="middle" font-family="Open Sans" fill="#0773af" transform="matrix(1,0,0,1,225,201.9)" style="fill: rgb(7, 115, 175);"><tspan dy="0" style="fill-opacity: 0; stroke-opacity: 0;" >-</tspan></text><g  id="v-34" font-weight="normal" text-anchor="middle" color="#0773af" transform="matrix(1,0,0,1,222.5,268)" display="none" style="fill: rgb(7, 115, 175);"><g ></g><g ></g><g ></g><g ></g></g><image  id="v-35"></image></g></g><!--z-index:34--><g   id="j_6"  transform="translate(1699,3265)" style=""><g  id="v-39" style="opacity: 1;"><rect  id="v-40" rx="10" ry="10" stroke="#0773af" stroke-width="7" pointer-events="visiblePainted" fill="#e6f2ff" x="10" y="0" width="150" height="75" style="fill: rgb(230, 242, 255); stroke: rgb(7, 115, 175);"></rect><rect  id="v-41" rx="5" ry="5" stroke="#0773af" stroke-width="7" pointer-events="visiblePainted" fill="#e6f2ff" x="0" y="37.5" width="450" height="262.5" style="fill: rgb(230, 242, 255); stroke: rgb(7, 115, 175);"></rect><text  id="v-42" font-size="34" xml:space="preserve" y="0.8em" font-weight="bold" text-anchor="middle" pointer-events="visible" font-family="Open Sans" fill="#0773af" transform="matrix(1,0,0,1,225,140.7)" style="fill: rgb(7, 115, 175);"><tspan dy="0" >account management</tspan></text><text  id="v-43" font-size="17" xml:space="preserve" y="0.8em" text-anchor="middle" font-family="Open Sans" fill="#0773af" transform="matrix(1,0,0,1,225,181.5)" style="fill: rgb(7, 115, 175);"><tspan dy="0" >[Software System]</tspan></text><text  id="v-44" font-size="24" xml:space="preserve" display="none" y="0.8em" text-anchor="middle" font-family="Open Sans" fill="#0773af" transform="matrix(1,0,0,1,225,201.9)" style="fill: rgb(7, 115, 175);"><tspan dy="0" style="fill-opacity: 0; stroke-opacity: 0;" >-</tspan></text><g  id="v-45" font-weight="normal" text-anchor="middle" color="#0773af" transform="matrix(1,0,0,1,222.5,268)" display="none" style="fill: rgb(7, 115, 175);"><g ></g><g ></g><g ></g><g ></g></g><image  id="v-46"></image></g></g><!--z-index:35--><g   id="j_7"  transform="translate(574,2065)" style=""><g  id="v-50" style="opacity: 1;"><rect  id="v-51" rx="10" ry="10" stroke="#0773af" stroke-width="7" pointer-events="visiblePainted" fill="#e6f2ff" x="10" y="0" width="150" height="75" style="fill: rgb(230, 242, 255); stroke: rgb(7, 115, 175);"></rect><rect  id="v-52" rx="5" ry="5" stroke="#0773af" stroke-width="7" pointer-events="visiblePainted" fill="#e6f2ff" x="0" y="37.5" width="450" height="262.5" style="fill: rgb(230, 242, 255); stroke: rgb(7, 115, 175);"></rect><text  id="v-53" font-size="34" xml:space="preserve" y="0.8em" font-weight="bold" text-anchor="middle" pointer-events="visible" font-family="Open Sans" fill="#0773af" transform="matrix(1,0,0,1,225,140.7)" style="fill: rgb(7, 115, 175);"><tspan dy="0" >content &amp; experience</tspan></text><text  id="v-54" font-size="17" xml:space="preserve" y="0.8em" text-anchor="middle" font-family="Open Sans" fill="#0773af" transform="matrix(1,0,0,1,225,181.5)" style="fill: rgb(7, 115, 175);"><tspan dy="0" >[Software System]</tspan></text><text  id="v-55" font-size="24" xml:space="preserve" display="none" y="0.8em" text-anchor="middle" font-family="Open Sans" fill="#0773af" transform="matrix(1,0,0,1,225,201.9)" style="fill: rgb(7, 115, 175);"><tspan dy="0" style="fill-opacity: 0; stroke-opacity: 0;" >-</tspan></text><g  id="v-56" font-weight="normal" text-anchor="middle" color="#0773af" transform="matrix(1,0,0,1,222.5,268)" display="none" style="fill: rgb(7, 115, 175);"><g ></g><g ></g><g ></g><g ></g></g><image  id="v-57"></image></g></g><!--z-index:36--><g   id="j_8"  transform="translate(574,1465)" style=""><g  id="v-61" style="opacity: 1;"><rect  id="v-62" rx="10" ry="10" stroke="#0773af" stroke-width="7" pointer-events="visiblePainted" fill="#e6f2ff" x="10" y="0" width="150" height="75" style="fill: rgb(230, 242, 255); stroke: rgb(7, 115, 175);"></rect><rect  id="v-63" rx="5" ry="5" stroke="#0773af" stroke-width="7" pointer-events="visiblePainted" fill="#e6f2ff" x="0" y="37.5" width="450" height="262.5" style="fill: rgb(230, 242, 255); stroke: rgb(7, 115, 175);"></rect><text  id="v-64" font-size="34" xml:space="preserve" y="0.8em" font-weight="bold" text-anchor="middle" pointer-events="visible" font-family="Open Sans" fill="#0773af" transform="matrix(1,0,0,1,225,120.3)" style="fill: rgb(7, 115, 175);"><tspan dy="0" >observability &amp;</tspan><tspan dy="1.2em" x="0" >monitoring</tspan></text><text  id="v-65" font-size="17" xml:space="preserve" y="0.8em" text-anchor="middle" font-family="Open Sans" fill="#0773af" transform="matrix(1,0,0,1,225,201.9)" style="fill: rgb(7, 115, 175);"><tspan dy="0" >[Software System]</tspan></text><text  id="v-66" font-size="24" xml:space="preserve" display="none" y="0.8em" text-anchor="middle" font-family="Open Sans" fill="#0773af" transform="matrix(1,0,0,1,225,222.3)" style="fill: rgb(7, 115, 175);"><tspan dy="0" style="fill-opacity: 0; stroke-opacity: 0;" >-</tspan></text><g  id="v-67" font-weight="normal" text-anchor="middle" color="#0773af" transform="matrix(1,0,0,1,222.5,268)" display="none" style="fill: rgb(7, 115, 175);"><g ></g><g ></g><g ></g><g ></g></g><image  id="v-68"></image></g></g><!--z-index:37--><g   id="j_9"  transform="translate(949,3265)" style=""><g  id="v-72" style="opacity: 1;"><rect  id="v-73" rx="10" ry="10" stroke="#0773af" stroke-width="7" pointer-events="visiblePainted" fill="#e6f2ff" x="10" y="0" width="150" height="75" style="fill: rgb(230, 242, 255); stroke: rgb(7, 115, 175);"></rect><rect  id="v-74" rx="5" ry="5" stroke="#0773af" stroke-width="7" pointer-events="visiblePainted" fill="#e6f2ff" x="0" y="37.5" width="450" height="262.5" style="fill: rgb(230, 242, 255); stroke: rgb(7, 115, 175);"></rect><text  id="v-75" font-size="34" xml:space="preserve" y="0.8em" font-weight="bold" text-anchor="middle" pointer-events="visible" font-family="Open Sans" fill="#0773af" transform="matrix(1,0,0,1,225,140.7)" style="fill: rgb(7, 115, 175);"><tspan dy="0" >delivery &amp; infrastructure</tspan></text><text  id="v-76" font-size="17" xml:space="preserve" y="0.8em" text-anchor="middle" font-family="Open Sans" fill="#0773af" transform="matrix(1,0,0,1,225,181.5)" style="fill: rgb(7, 115, 175);"><tspan dy="0" >[Software System]</tspan></text><text  id="v-77" font-size="24" xml:space="preserve" display="none" y="0.8em" text-anchor="middle" font-family="Open Sans" fill="#0773af" transform="matrix(1,0,0,1,225,201.9)" style="fill: rgb(7, 115, 175);"><tspan dy="0" style="fill-opacity: 0; stroke-opacity: 0;" >-</tspan></text><g  id="v-78" font-weight="normal" text-anchor="middle" color="#0773af" transform="matrix(1,0,0,1,222.5,268)" display="none" style="fill: rgb(7, 115, 175);"><g ></g><g ></g><g ></g><g ></g></g><image  id="v-79"></image></g></g><!--z-index:38--><g   id="j_10"  transform="translate(949,3865)" style=""><g  id="v-83" style="opacity: 1;"><rect  id="v-84" rx="10" ry="10" stroke="#0773af" stroke-width="7" pointer-events="visiblePainted" fill="#e6f2ff" x="10" y="0" width="150" height="75" style="fill: rgb(230, 242, 255); stroke: rgb(7, 115, 175);"></rect><rect  id="v-85" rx="5" ry="5" stroke="#0773af" stroke-width="7" pointer-events="visiblePainted" fill="#e6f2ff" x="0" y="37.5" width="450" height="262.5" style="fill: rgb(230, 242, 255); stroke: rgb(7, 115, 175);"></rect><text  id="v-86" font-size="34" xml:space="preserve" y="0.8em" font-weight="bold" text-anchor="middle" pointer-events="visible" font-family="Open Sans" fill="#0773af" transform="matrix(1,0,0,1,225,120.3)" style="fill: rgb(7, 115, 175);"><tspan dy="0" >communication &amp;</tspan><tspan dy="1.2em" x="0" >workflow</tspan></text><text  id="v-87" font-size="17" xml:space="preserve" y="0.8em" text-anchor="middle" font-family="Open Sans" fill="#0773af" transform="matrix(1,0,0,1,225,201.9)" style="fill: rgb(7, 115, 175);"><tspan dy="0" >[Software System]</tspan></text><text  id="v-88" font-size="24" xml:space="preserve" display="none" y="0.8em" text-anchor="middle" font-family="Open Sans" fill="#0773af" transform="matrix(1,0,0,1,225,222.3)" style="fill: rgb(7, 115, 175);"><tspan dy="0" style="fill-opacity: 0; stroke-opacity: 0;" >-</tspan></text><g  id="v-89" font-weight="normal" text-anchor="middle" color="#0773af" transform="matrix(1,0,0,1,222.5,268)" display="none" style="fill: rgb(7, 115, 175);"><g ></g><g ></g><g ></g><g ></g></g><image  id="v-90"></image></g></g><!--z-index:39--><g   id="j_11"  transform="translate(1324,2065)" style=""><g  id="v-94" style="opacity: 1;"><polygon  id="v-95" stroke="#3c7fc0" stroke-width="7" pointer-events="visiblePainted" fill="#438dd5" points="112.5,0 337.5,0 450,194.5 337.5,389 112.5,389 0,194.5" style="fill: rgb(67, 141, 213); stroke: rgb(60, 127, 192);"></polygon><text  id="v-96" font-size="34" xml:space="preserve" y="0.8em" font-weight="bold" text-anchor="middle" pointer-events="visible" font-family="Open Sans" fill="#ffffff" transform="matrix(1,0,0,1,225,166.4)" style="fill: rgb(255, 255, 255);"><tspan dy="0" >identity provider</tspan></text><text  id="v-97" font-size="17" xml:space="preserve" y="0.8em" text-anchor="middle" font-family="Open Sans" fill="#ffffff" transform="matrix(1,0,0,1,225,207.2)" style="fill: rgb(255, 255, 255);"><tspan dy="0" >[Software System]</tspan></text><text  id="v-98" font-size="24" xml:space="preserve" display="none" y="0.8em" text-anchor="middle" font-family="Open Sans" fill="#ffffff" transform="matrix(1,0,0,1,225,227.6)" style="fill: rgb(255, 255, 255);"><tspan dy="0" style="fill-opacity: 0; stroke-opacity: 0;" >-</tspan></text><g  id="v-99" font-weight="normal" text-anchor="middle" color="#ffffff" transform="matrix(1,0,0,1,222.1,357)" display="none" style="fill: rgb(255, 255, 255);"><g ></g><g ></g><g ></g><g ></g></g><image  id="v-100"></image></g></g><!--z-index:40--><g   id="j_12"  transform="translate(2074,2665)" style=""><g  id="v-104" style="opacity: 1;"><polygon  id="v-105" stroke="#3c7fc0" stroke-width="7" pointer-events="visiblePainted" fill="#438dd5" points="112.5,0 337.5,0 450,194.5 337.5,389 112.5,389 0,194.5" style="fill: rgb(67, 141, 213); stroke: rgb(60, 127, 192);"></polygon><text  id="v-106" font-size="34" xml:space="preserve" y="0.8em" font-weight="bold" text-anchor="middle" pointer-events="visible" font-family="Open Sans" fill="#ffffff" transform="matrix(1,0,0,1,225,166.4)" style="fill: rgb(255, 255, 255);"><tspan dy="0" >payment gateway</tspan></text><text  id="v-107" font-size="17" xml:space="preserve" y="0.8em" text-anchor="middle" font-family="Open Sans" fill="#ffffff" transform="matrix(1,0,0,1,225,207.2)" style="fill: rgb(255, 255, 255);"><tspan dy="0" >[Software System]</tspan></text><text  id="v-108" font-size="24" xml:space="preserve" display="none" y="0.8em" text-anchor="middle" font-family="Open Sans" fill="#ffffff" transform="matrix(1,0,0,1,225,227.6)" style="fill: rgb(255, 255, 255);"><tspan dy="0" style="fill-opacity: 0; stroke-opacity: 0;" >-</tspan></text><g  id="v-109" font-weight="normal" text-anchor="middle" color="#ffffff" transform="matrix(1,0,0,1,222.1,357)" display="none" style="fill: rgb(255, 255, 255);"><g ></g><g ></g><g ></g><g ></g></g><image  id="v-110"></image></g></g><!--z-index:41--><g   id="j_13"  transform="translate(199,3265)" style=""><g  id="v-114" style="opacity: 1;"><polygon  id="v-115" stroke="#3c7fc0" stroke-width="7" pointer-events="visiblePainted" fill="#438dd5" points="112.5,0 337.5,0 450,194.5 337.5,389 112.5,389 0,194.5" style="fill: rgb(67, 141, 213); stroke: rgb(60, 127, 192);"></polygon><text  id="v-116" font-size="34" xml:space="preserve" y="0.8em" font-weight="bold" text-anchor="middle" pointer-events="visible" font-family="Open Sans" fill="#ffffff" transform="matrix(1,0,0,1,225,166.4)" style="fill: rgb(255, 255, 255);"><tspan dy="0" >email &amp; sms provider</tspan></text><text  id="v-117" font-size="17" xml:space="preserve" y="0.8em" text-anchor="middle" font-family="Open Sans" fill="#ffffff" transform="matrix(1,0,0,1,225,207.2)" style="fill: rgb(255, 255, 255);"><tspan dy="0" >[Software System]</tspan></text><text  id="v-118" font-size="24" xml:space="preserve" display="none" y="0.8em" text-anchor="middle" font-family="Open Sans" fill="#ffffff" transform="matrix(1,0,0,1,225,227.6)" style="fill: rgb(255, 255, 255);"><tspan dy="0" style="fill-opacity: 0; stroke-opacity: 0;" >-</tspan></text><g  id="v-119" font-weight="normal" text-anchor="middle" color="#ffffff" transform="matrix(1,0,0,1,222.1,357)" display="none" style="fill: rgb(255, 255, 255);"><g ></g><g ></g><g ></g><g ></g></g><image  id="v-120"></image></g></g><!--z-index:42--><g   id="j_14"  transform="translate(574,2665)" style=""><g  id="v-121" style="opacity: 1;"><polygon  id="v-122" stroke="#3c7fc0" stroke-width="7" pointer-events="visiblePainted" fill="#438dd5" points="112.5,0 337.5,0 450,194.5 337.5,389 112.5,389 0,194.5" style="fill: rgb(67, 141, 213); stroke: rgb(60, 127, 192);"></polygon><text  id="v-123" font-size="34" xml:space="preserve" y="0.8em" font-weight="bold" text-anchor="middle" pointer-events="visible" font-family="Open Sans" fill="#ffffff" transform="matrix(1,0,0,1,225,166.4)" style="fill: rgb(255, 255, 255);"><tspan dy="0" >cdn &amp; hosting</tspan></text><text  id="v-124" font-size="17" xml:space="preserve" y="0.8em" text-anchor="middle" font-family="Open Sans" fill="#ffffff" transform="matrix(1,0,0,1,225,207.2)" style="fill: rgb(255, 255, 255);"><tspan dy="0" >[Software System]</tspan></text><text  id="v-125" font-size="24" xml:space="preserve" display="none" y="0.8em" text-anchor="middle" font-family="Open Sans" fill="#ffffff" transform="matrix(1,0,0,1,225,227.6)" style="fill: rgb(255, 255, 255);"><tspan dy="0" style="fill-opacity: 0; stroke-opacity: 0;" >-</tspan></text><g  id="v-126" font-weight="normal" text-anchor="middle" color="#ffffff" transform="matrix(1,0,0,1,222.1,357)" display="none" style="fill: rgb(255, 255, 255);"><g ></g><g ></g><g ></g><g ></g></g><image  id="v-127"></image></g></g><!--z-index:43--><g   id="j_15" ><path  stroke="#707070" d="M 2228 565 L 2228 865" id="v-143" stroke-width="2" stroke-dasharray="30 30" fill="none" style="opacity: 1;"></path><path  fill="black" stroke="black" d="M 0 0 0 0" transform="matrix(6.123233995736766e-17,1,-1,6.123233995736766e-17,2228,565)"></path><path  fill="#707070" stroke="#707070" d="M 20 0 L 0 10 L 20 20 z" id="v-145" transform="matrix(-1.8369701987210297e-16,-1,1,-1.8369701987210297e-16,2218,865)" style="opacity: 1;"></path><path  d="M 2228 565 L 2228 865" id="v-144" fill="none" style="cursor: auto; pointer-events: visiblepainted;"></path><g ><g id="v-134"  label-idx="0" cursor="move" transform="matrix(1,0,0,1,2228,715)" style="cursor: default; opacity: 1;"><rect joint-selector="rect" id="v-138" fill="#ffffff" rx="3" ry="3" pointer-events="none" width="153.58868408203125" height="59.691917419433594" transform="matrix(1,0,0,1,-74.9,-29.8)"></rect><text joint-selector="text" id="v-137" font-size="24px" xml:space="preserve" y="0.8em" fill="#707070" text-anchor="middle" pointer-events="none" font-family="Open Sans" font-weight="normal" transform="matrix(1,0,0,1,0,-24.3)"><tspan dy="0" >Manages and</tspan><tspan dy="1.2em" x="0" >configures</tspan></text></g><g id="v-135"  label-idx="1" cursor="move" transform="matrix(1,0,0,1,2228,755.7999877929688)" style="cursor: default; opacity: 1;"><rect joint-selector="rect" id="v-140" fill="#ffffff" rx="3" ry="3" pointer-events="none" width="133.53062438964844" height="24.713534355163574" transform="matrix(1,0,0,1,-69.6,-12.3)"></rect><text joint-selector="text" id="v-139" font-size="17px" xml:space="preserve" y="0.8em" fill="#707070" text-anchor="middle" pointer-events="none" font-family="Open Sans" font-weight="normal" transform="matrix(1,0,0,1,0,-7.4)"><tspan dy="0" >[admin console]</tspan></text></g><g id="v-136"  label-idx="2" cursor="move" transform="matrix(1,0,0,1,2218,764.2000122070312)" style="cursor: default; opacity: 1;"><rect joint-selector="rect" id="v-142" fill="#ffffff" rx="3" ry="3"  width="0" height="0" transform="matrix(1,0,0,1,0,0)" display="none"></rect><text joint-selector="text" id="v-141" fill="#000000" font-size="14" text-anchor="middle" pointer-events="none"></text></g></g><g  display="none" style="display: none;"></g><g  id="v-147" display="none"><g  id="v-132"><path  end="source" d="M 26 0 L 0 13 L 26 26 z"></path></g><g  id="v-133"><path  end="target" d="M 26 0 L 0 13 L 26 26 z"></path></g></g><g  id="v-146" display="none"><g  id="v-131" transform="translate(2228, 605) "><g  event="remove"><circle r="11"></circle><path transform="scale(.8) translate(-16, -16)" d="M24.778,21.419 19.276,15.917 24.777,10.415 21.949,7.585 16.447,13.087 10.945,7.585 8.117,10.415 13.618,15.917 8.116,21.419 10.946,24.248 16.447,18.746 21.948,24.248z"></path><title>Remove link.</title></g><g  event="link:options"><circle r="11" transform="translate(25)"></circle><path fill="white" transform="scale(.55) translate(29, -16)" d="M31.229,17.736c0.064-0.571,0.104-1.148,0.104-1.736s-0.04-1.166-0.104-1.737l-4.377-1.557c-0.218-0.716-0.504-1.401-0.851-2.05l1.993-4.192c-0.725-0.91-1.549-1.734-2.458-2.459l-4.193,1.994c-0.647-0.347-1.334-0.632-2.049-0.849l-1.558-4.378C17.165,0.708,16.588,0.667,16,0.667s-1.166,0.041-1.737,0.105L12.707,5.15c-0.716,0.217-1.401,0.502-2.05,0.849L6.464,4.005C5.554,4.73,4.73,5.554,4.005,6.464l1.994,4.192c-0.347,0.648-0.632,1.334-0.849,2.05l-4.378,1.557C0.708,14.834,0.667,15.412,0.667,16s0.041,1.165,0.105,1.736l4.378,1.558c0.217,0.715,0.502,1.401,0.849,2.049l-1.994,4.193c0.725,0.909,1.549,1.733,2.459,2.458l4.192-1.993c0.648,0.347,1.334,0.633,2.05,0.851l1.557,4.377c0.571,0.064,1.148,0.104,1.737,0.104c0.588,0,1.165-0.04,1.736-0.104l1.558-4.377c0.715-0.218,1.399-0.504,2.049-0.851l4.193,1.993c0.909-0.725,1.733-1.549,2.458-2.458l-1.993-4.193c0.347-0.647,0.633-1.334,0.851-2.049L31.229,17.736zM16,20.871c-2.69,0-4.872-2.182-4.872-4.871c0-2.69,2.182-4.872,4.872-4.872c2.689,0,4.871,2.182,4.871,4.872C20.871,18.689,18.689,20.871,16,20.871z"></path><title>Link options.</title></g></g></g></g><!--z-index:44--><g   id="j_16" ><path  stroke="#707070" d="M 2194 1165 L 1926 2355 C 1924.6666666666665 2361.6666666666665 1921.9999999999998 2367.6666666666665 1918 2373 L 1674 2665" id="v-164" stroke-width="2" stroke-dasharray="30 30" fill="none" style="opacity: 1;"></path><path  fill="black" stroke="black" d="M 0 0 0 0" transform="matrix(-0.21968247494192403,0.975571427525115,-0.975571427525115,-0.21968247494192403,2194.219970703125,1165)"></path><path  fill="#707070" stroke="#707070" d="M 20 0 L 0 10 L 20 20 z" id="v-166" transform="matrix(0.6401844186703122,-0.7682212637591819,0.7682212637591819,0.6401844186703122,1666.317798644455,2658.5982395446385)" style="opacity: 1;"></path><path  d="M 2194 1165 L 1926 2355 C 1924.6666666666665 2361.6666666666665 1921.9999999999998 2367.6666666666665 1918 2373 L 1674 2665" id="v-165" fill="none" style="cursor: auto; pointer-events: visiblepainted;"></path><g ><g id="v-155"  label-idx="0" cursor="move" transform="matrix(1,0,0,1,2016.015869140625,1955.302734375)" style="cursor: default; opacity: 1;"><rect joint-selector="rect" id="v-159" fill="#ffffff" rx="3" ry="3" pointer-events="none" width="208.740966796875" height="88.49191284179688" transform="matrix(1,0,0,1,-105.6,-44.2)"></rect><text joint-selector="text" id="v-158" font-size="24px" xml:space="preserve" y="0.8em" fill="#707070" text-anchor="middle" pointer-events="none" font-family="Open Sans" font-weight="normal" transform="matrix(1,0,0,1,0,-38.7)"><tspan dy="0" >manages</tspan><tspan dy="1.2em" x="0" >authentication</tspan><tspan dy="1.2em" x="0" >and authorization</tspan></text></g><g id="v-156"  label-idx="1" cursor="move" transform="matrix(1,0,0,1,2016.015869140625,2010.5028076171875)" style="cursor: default; opacity: 1;"><rect joint-selector="rect" id="v-161" fill="#ffffff" rx="3" ry="3" pointer-events="none" width="107.3313217163086" height="24.713534355163574" transform="matrix(1,0,0,1,-56.5,-12.3)"></rect><text joint-selector="text" id="v-160" font-size="17px" xml:space="preserve" y="0.8em" fill="#707070" text-anchor="middle" pointer-events="none" font-family="Open Sans" font-weight="normal" transform="matrix(1,0,0,1,0,-7.4)"><tspan dy="0" >[auth | rbac]</tspan></text></g><g id="v-157"  label-idx="2" cursor="move" transform="matrix(1,0,0,1,2006.015869140625,2018.9027099609375)" style="cursor: default; opacity: 1;"><rect joint-selector="rect" id="v-163" fill="#ffffff" rx="3" ry="3"  width="0" height="0" transform="matrix(1,0,0,1,0,0)" display="none"></rect><text joint-selector="text" id="v-162" fill="#000000" font-size="14" text-anchor="middle" pointer-events="none"></text></g></g><g  display="none" style="display: none;"><g  transform="translate(1924, 2365)" id="v-420"><circle  idx="0" r="10"></circle><path  idx="0" d="M16,5.333c-7.732,0-14,4.701-14,10.5c0,1.982,0.741,3.833,2.016,5.414L2,25.667l5.613-1.441c2.339,1.317,5.237,2.107,8.387,2.107c7.732,0,14-4.701,14-10.5C30,10.034,23.732,5.333,16,5.333z" transform="translate(5, -33)"></path><path  idx="0" transform="scale(.8) translate(9.5, -37)" d="M24.778,21.419 19.276,15.917 24.777,10.415 21.949,7.585 16.447,13.087 10.945,7.585 8.117,10.415 13.618,15.917 8.116,21.419 10.946,24.248 16.447,18.746 21.948,24.248z"><title>Remove vertex.</title></path></g></g><g  id="v-168" display="none"><g  id="v-153"><path  end="source" d="M 26 0 L 0 13 L 26 26 z"></path></g><g  id="v-154"><path  end="target" d="M 26 0 L 0 13 L 26 26 z"></path></g></g><g  id="v-167" display="none"><g  id="v-151" transform="translate(2185.211709365476, 1204.0226337876256) "><g  event="remove"><circle r="11"></circle><path transform="scale(.8) translate(-16, -16)" d="M24.778,21.419 19.276,15.917 24.777,10.415 21.949,7.585 16.447,13.087 10.945,7.585 8.117,10.415 13.618,15.917 8.116,21.419 10.946,24.248 16.447,18.746 21.948,24.248z"></path><title>Remove link.</title></g><g  event="link:options"><circle r="11" transform="translate(25)"></circle><path fill="white" transform="scale(.55) translate(29, -16)" d="M31.229,17.736c0.064-0.571,0.104-1.148,0.104-1.736s-0.04-1.166-0.104-1.737l-4.377-1.557c-0.218-0.716-0.504-1.401-0.851-2.05l1.993-4.192c-0.725-0.91-1.549-1.734-2.458-2.459l-4.193,1.994c-0.647-0.347-1.334-0.632-2.049-0.849l-1.558-4.378C17.165,0.708,16.588,0.667,16,0.667s-1.166,0.041-1.737,0.105L12.707,5.15c-0.716,0.217-1.401,0.502-2.05,0.849L6.464,4.005C5.554,4.73,4.73,5.554,4.005,6.464l1.994,4.192c-0.347,0.648-0.632,1.334-0.849,2.05l-4.378,1.557C0.708,14.834,0.667,15.412,0.667,16s0.041,1.165,0.105,1.736l4.378,1.558c0.217,0.715,0.502,1.401,0.849,2.049l-1.994,4.193c0.725,0.909,1.549,1.733,2.459,2.458l4.192-1.993c0.648,0.347,1.334,0.633,2.05,0.851l1.557,4.377c0.571,0.064,1.148,0.104,1.737,0.104c0.588,0,1.165-0.04,1.736-0.104l1.558-4.377c0.715-0.218,1.399-0.504,2.049-0.851l4.193,1.993c0.909-0.725,1.733-1.549,2.458-2.458l-1.993-4.193c0.347-0.647,0.633-1.334,0.851-2.049L31.229,17.736zM16,20.871c-2.69,0-4.872-2.182-4.872-4.871c0-2.69,2.182-4.872,4.872-4.872c2.689,0,4.871,2.182,4.871,4.872C20.871,18.689,18.689,20.871,16,20.871z"></path><title>Link options.</title></g></g></g></g><!--z-index:45--><g   id="j_17" ><path  stroke="#707070" d="M 1549 2454 L 1549 2665" id="v-181" stroke-width="2" stroke-dasharray="30 30" fill="none" style="opacity: 1;"></path><path  fill="black" stroke="black" d="M 0 0 0 0" transform="matrix(6.123233995736766e-17,1,-1,6.123233995736766e-17,1549,2454)"></path><path  fill="#707070" stroke="#707070" d="M 20 0 L 0 10 L 20 20 z" id="v-183" transform="matrix(-1.8369701987210297e-16,-1,1,-1.8369701987210297e-16,1539,2665)" style="opacity: 1;"></path><path  d="M 1549 2454 L 1549 2665" id="v-182" fill="none" style="cursor: auto; pointer-events: visiblepainted;"></path><g ><g id="v-175"  label-idx="0" cursor="move" transform="matrix(1,0,0,1,1549,2559.5)" style="cursor: default; opacity: 1;"><rect joint-selector="rect" id="v-178" fill="#ffffff" rx="3" ry="3" pointer-events="none" width="192.7422637939453" height="88.49191284179688" transform="matrix(1,0,0,1,-94.5,-44.2)"></rect><text joint-selector="text" id="v-177" font-size="24px" xml:space="preserve" y="0.8em" fill="#707070" text-anchor="middle" pointer-events="none" font-family="Open Sans" font-weight="normal" transform="matrix(1,0,0,1,0,-38.7)"><tspan dy="0" >provides sso and</tspan><tspan dy="1.2em" x="0" >identity</tspan><tspan dy="1.2em" x="0" >management</tspan></text></g><g id="v-176"  label-idx="1" cursor="move" transform="matrix(1,0,0,1,1539,2614.699951171875)" style="cursor: default; opacity: 1;"><rect joint-selector="rect" id="v-180" fill="#ffffff" rx="3" ry="3"  width="0" height="0" transform="matrix(1,0,0,1,0,0)" display="none"></rect><text joint-selector="text" id="v-179" fill="#000000" font-size="14" text-anchor="middle" pointer-events="none"></text></g></g><g  display="none" style="display: none;"></g><g  id="v-185" display="none"><g  id="v-173"><path  end="source" d="M 26 0 L 0 13 L 26 26 z"></path></g><g  id="v-174"><path  end="target" d="M 26 0 L 0 13 L 26 26 z"></path></g></g><g  id="v-184" display="none"><g  id="v-172" transform="translate(1549, 2494) "><g  event="remove"><circle r="11"></circle><path transform="scale(.8) translate(-16, -16)" d="M24.778,21.419 19.276,15.917 24.777,10.415 21.949,7.585 16.447,13.087 10.945,7.585 8.117,10.415 13.618,15.917 8.116,21.419 10.946,24.248 16.447,18.746 21.948,24.248z"></path><title>Remove link.</title></g><g  event="link:options"><circle r="11" transform="translate(25)"></circle><path fill="white" transform="scale(.55) translate(29, -16)" d="M31.229,17.736c0.064-0.571,0.104-1.148,0.104-1.736s-0.04-1.166-0.104-1.737l-4.377-1.557c-0.218-0.716-0.504-1.401-0.851-2.05l1.993-4.192c-0.725-0.91-1.549-1.734-2.458-2.459l-4.193,1.994c-0.647-0.347-1.334-0.632-2.049-0.849l-1.558-4.378C17.165,0.708,16.588,0.667,16,0.667s-1.166,0.041-1.737,0.105L12.707,5.15c-0.716,0.217-1.401,0.502-2.05,0.849L6.464,4.005C5.554,4.73,4.73,5.554,4.005,6.464l1.994,4.192c-0.347,0.648-0.632,1.334-0.849,2.05l-4.378,1.557C0.708,14.834,0.667,15.412,0.667,16s0.041,1.165,0.105,1.736l4.378,1.558c0.217,0.715,0.502,1.401,0.849,2.049l-1.994,4.193c0.725,0.909,1.549,1.733,2.459,2.458l4.192-1.993c0.648,0.347,1.334,0.633,2.05,0.851l1.557,4.377c0.571,0.064,1.148,0.104,1.737,0.104c0.588,0,1.165-0.04,1.736-0.104l1.558-4.377c0.715-0.218,1.399-0.504,2.049-0.851l4.193,1.993c0.909-0.725,1.733-1.549,2.458-2.458l-1.993-4.193c0.347-0.647,0.633-1.334,0.851-2.049L31.229,17.736zM16,20.871c-2.69,0-4.872-2.182-4.872-4.871c0-2.69,2.182-4.872,4.872-4.872c2.689,0,4.871,2.182,4.871,4.872C20.871,18.689,18.689,20.871,16,20.871z"></path><title>Link options.</title></g></g></g></g><!--z-index:46--><g   id="j_18" ><path  stroke="#707070" d="M 2269 1165 L 2671 2655 C 2673 2661.6666666666665 2674 2668.333333333333 2674 2675 L 2674 2955 C 2674 2961.6666666666665 2671 2966.6666666666665 2665 2970 L 2149 3280" id="v-203" stroke-width="2" stroke-dasharray="30 30" fill="none" style="opacity: 1;"></path><path  fill="black" stroke="black" d="M 0 0 0 0" transform="matrix(0.26093577725731437,0.9653561623292831,-0.9653561623292831,0.26093577725731437,2268.550048828125,1165)"></path><path  fill="#707070" stroke="#707070" d="M 20 0 L 0 10 L 20 20 z" id="v-205" transform="matrix(0.8574930282141504,-0.5144955845914776,0.5144955845914776,0.8574930282141504,2143.8550650438187,3271.4250060325235)" style="opacity: 1;"></path><path  d="M 2269 1165 L 2671 2655 C 2673 2661.6666666666665 2674 2668.333333333333 2674 2675 L 2674 2955 C 2674 2961.6666666666665 2671 2966.6666666666665 2665 2970 L 2149 3280" id="v-204" fill="none" style="cursor: auto; pointer-events: visiblepainted;"></path><g ><g id="v-194"  label-idx="0" cursor="move" transform="matrix(1,0,0,1,2589.91455078125,2354.45947265625)" style="cursor: default; opacity: 1;"><rect joint-selector="rect" id="v-198" fill="#ffffff" rx="3" ry="3" pointer-events="none" width="193.29425048828125" height="88.49191284179688" transform="matrix(1,0,0,1,-96.2,-44.2)"></rect><text joint-selector="text" id="v-197" font-size="24px" xml:space="preserve" y="0.8em" fill="#707070" text-anchor="middle" pointer-events="none" font-family="Open Sans" font-weight="normal" transform="matrix(1,0,0,1,0,-38.7)"><tspan dy="0" >manages tenants</tspan><tspan dy="1.2em" x="0" >and profile</tspan><tspan dy="1.2em" x="0" >accounts</tspan></text></g><g id="v-195"  label-idx="1" cursor="move" transform="matrix(1,0,0,1,2589.91455078125,2409.659423828125)" style="cursor: default; opacity: 1;"><rect joint-selector="rect" id="v-200" fill="#ffffff" rx="3" ry="3" pointer-events="none" width="139.40431213378906" height="24.713534355163574" transform="matrix(1,0,0,1,-72.5,-12.3)"></rect><text joint-selector="text" id="v-199" font-size="17px" xml:space="preserve" y="0.8em" fill="#707070" text-anchor="middle" pointer-events="none" font-family="Open Sans" font-weight="normal" transform="matrix(1,0,0,1,0,-7.4)"><tspan dy="0" >[tenant | profile]</tspan></text></g><g id="v-196"  label-idx="2" cursor="move" transform="matrix(1,0,0,1,2579.91455078125,2418.059326171875)" style="cursor: default; opacity: 1;"><rect joint-selector="rect" id="v-202" fill="#ffffff" rx="3" ry="3"  width="0" height="0" transform="matrix(1,0,0,1,0,0)" display="none"></rect><text joint-selector="text" id="v-201" fill="#000000" font-size="14" text-anchor="middle" pointer-events="none"></text></g></g><g  display="none" style="display: none;"><g  transform="translate(2674, 2665)" id="v-421"><circle  idx="0" r="10"></circle><path  idx="0" d="M16,5.333c-7.732,0-14,4.701-14,10.5c0,1.982,0.741,3.833,2.016,5.414L2,25.667l5.613-1.441c2.339,1.317,5.237,2.107,8.387,2.107c7.732,0,14-4.701,14-10.5C30,10.034,23.732,5.333,16,5.333z" transform="translate(5, -33)"></path><path  idx="0" transform="scale(.8) translate(9.5, -37)" d="M24.778,21.419 19.276,15.917 24.777,10.415 21.949,7.585 16.447,13.087 10.945,7.585 8.117,10.415 13.618,15.917 8.116,21.419 10.946,24.248 16.447,18.746 21.948,24.248z"><title>Remove vertex.</title></path></g><g  transform="translate(2674, 2965)" id="v-422"><circle  idx="1" r="10"></circle><path  idx="1" d="M16,5.333c-7.732,0-14,4.701-14,10.5c0,1.982,0.741,3.833,2.016,5.414L2,25.667l5.613-1.441c2.339,1.317,5.237,2.107,8.387,2.107c7.732,0,14-4.701,14-10.5C30,10.034,23.732,5.333,16,5.333z" transform="translate(5, -33)"></path><path  idx="1" transform="scale(.8) translate(9.5, -37)" d="M24.778,21.419 19.276,15.917 24.777,10.415 21.949,7.585 16.447,13.087 10.945,7.585 8.117,10.415 13.618,15.917 8.116,21.419 10.946,24.248 16.447,18.746 21.948,24.248z"><title>Remove vertex.</title></path></g></g><g  id="v-207" display="none"><g  id="v-192"><path  end="source" d="M 26 0 L 0 13 L 26 26 z"></path></g><g  id="v-193"><path  end="target" d="M 26 0 L 0 13 L 26 26 z"></path></g></g><g  id="v-206" display="none"><g  id="v-189" transform="translate(2279.4193865768334, 1203.6191194016967) "><g  event="remove"><circle r="11"></circle><path transform="scale(.8) translate(-16, -16)" d="M24.778,21.419 19.276,15.917 24.777,10.415 21.949,7.585 16.447,13.087 10.945,7.585 8.117,10.415 13.618,15.917 8.116,21.419 10.946,24.248 16.447,18.746 21.948,24.248z"></path><title>Remove link.</title></g><g  event="link:options"><circle r="11" transform="translate(25)"></circle><path fill="white" transform="scale(.55) translate(29, -16)" d="M31.229,17.736c0.064-0.571,0.104-1.148,0.104-1.736s-0.04-1.166-0.104-1.737l-4.377-1.557c-0.218-0.716-0.504-1.401-0.851-2.05l1.993-4.192c-0.725-0.91-1.549-1.734-2.458-2.459l-4.193,1.994c-0.647-0.347-1.334-0.632-2.049-0.849l-1.558-4.378C17.165,0.708,16.588,0.667,16,0.667s-1.166,0.041-1.737,0.105L12.707,5.15c-0.716,0.217-1.401,0.502-2.05,0.849L6.464,4.005C5.554,4.73,4.73,5.554,4.005,6.464l1.994,4.192c-0.347,0.648-0.632,1.334-0.849,2.05l-4.378,1.557C0.708,14.834,0.667,15.412,0.667,16s0.041,1.165,0.105,1.736l4.378,1.558c0.217,0.715,0.502,1.401,0.849,2.049l-1.994,4.193c0.725,0.909,1.549,1.733,2.459,2.458l4.192-1.993c0.648,0.347,1.334,0.633,2.05,0.851l1.557,4.377c0.571,0.064,1.148,0.104,1.737,0.104c0.588,0,1.165-0.04,1.736-0.104l1.558-4.377c0.715-0.218,1.399-0.504,2.049-0.851l4.193,1.993c0.909-0.725,1.733-1.549,2.458-2.458l-1.993-4.193c0.347-0.647,0.633-1.334,0.851-2.049L31.229,17.736zM16,20.871c-2.69,0-4.872-2.182-4.872-4.871c0-2.69,2.182-4.872,4.872-4.872c2.689,0,4.871,2.182,4.871,4.872C20.871,18.689,18.689,20.871,16,20.871z"></path><title>Link options.</title></g></g></g></g><!--z-index:47--><g   id="j_19" ><path  stroke="#707070" d="M 2168 3054 L 2025 3265" id="v-220" stroke-width="2" stroke-dasharray="30 30" fill="none" style="opacity: 1;"></path><path  fill="black" stroke="black" d="M 0 0 0 0" transform="matrix(-0.5595133326503989,0.8288213502235835,-0.8288213502235835,-0.5595133326503989,2167.699951171875,3054)"></path><path  fill="#707070" stroke="#707070" d="M 20 0 L 0 10 L 20 20 z" id="v-222" transform="matrix(0.5595134430146322,-0.8288212757198694,0.8288212757198694,0.5595134430146322,2016.9717553517175,3259.4047482489273)" style="opacity: 1;"></path><path  d="M 2168 3054 L 2025 3265" id="v-221" fill="none" style="cursor: auto; pointer-events: visiblepainted;"></path><g ><g id="v-214"  label-idx="0" cursor="move" transform="matrix(1,0,0,1,2096.5,3159.5)" style="cursor: default; opacity: 1;"><rect joint-selector="rect" id="v-217" fill="#ffffff" rx="3" ry="3" pointer-events="none" width="112.49398803710938" height="59.691917419433594" transform="matrix(1,0,0,1,-55.8,-29.8)"></rect><text joint-selector="text" id="v-216" font-size="24px" xml:space="preserve" y="0.8em" fill="#707070" text-anchor="middle" pointer-events="none" font-family="Open Sans" font-weight="normal" transform="matrix(1,0,0,1,0,-24.3)"><tspan dy="0" >processes</tspan><tspan dy="1.2em" x="0" >payments</tspan></text></g><g id="v-215"  label-idx="1" cursor="move" transform="matrix(1,0,0,1,2086.5,3200.300048828125)" style="cursor: default; opacity: 1;"><rect joint-selector="rect" id="v-219" fill="#ffffff" rx="3" ry="3"  width="0" height="0" transform="matrix(1,0,0,1,0,0)" display="none"></rect><text joint-selector="text" id="v-218" fill="#000000" font-size="14" text-anchor="middle" pointer-events="none"></text></g></g><g  display="none" style="display: none;"></g><g  id="v-224" display="none"><g  id="v-212"><path  end="source" d="M 26 0 L 0 13 L 26 26 z"></path></g><g  id="v-213"><path  end="target" d="M 26 0 L 0 13 L 26 26 z"></path></g></g><g  id="v-223" display="none"><g  id="v-211" transform="translate(2145.559134881335, 3087.112045734534) "><g  event="remove"><circle r="11"></circle><path transform="scale(.8) translate(-16, -16)" d="M24.778,21.419 19.276,15.917 24.777,10.415 21.949,7.585 16.447,13.087 10.945,7.585 8.117,10.415 13.618,15.917 8.116,21.419 10.946,24.248 16.447,18.746 21.948,24.248z"></path><title>Remove link.</title></g><g  event="link:options"><circle r="11" transform="translate(25)"></circle><path fill="white" transform="scale(.55) translate(29, -16)" d="M31.229,17.736c0.064-0.571,0.104-1.148,0.104-1.736s-0.04-1.166-0.104-1.737l-4.377-1.557c-0.218-0.716-0.504-1.401-0.851-2.05l1.993-4.192c-0.725-0.91-1.549-1.734-2.458-2.459l-4.193,1.994c-0.647-0.347-1.334-0.632-2.049-0.849l-1.558-4.378C17.165,0.708,16.588,0.667,16,0.667s-1.166,0.041-1.737,0.105L12.707,5.15c-0.716,0.217-1.401,0.502-2.05,0.849L6.464,4.005C5.554,4.73,4.73,5.554,4.005,6.464l1.994,4.192c-0.347,0.648-0.632,1.334-0.849,2.05l-4.378,1.557C0.708,14.834,0.667,15.412,0.667,16s0.041,1.165,0.105,1.736l4.378,1.558c0.217,0.715,0.502,1.401,0.849,2.049l-1.994,4.193c0.725,0.909,1.549,1.733,2.459,2.458l4.192-1.993c0.648,0.347,1.334,0.633,2.05,0.851l1.557,4.377c0.571,0.064,1.148,0.104,1.737,0.104c0.588,0,1.165-0.04,1.736-0.104l1.558-4.377c0.715-0.218,1.399-0.504,2.049-0.851l4.193,1.993c0.909-0.725,1.733-1.549,2.458-2.458l-1.993-4.193c0.347-0.647,0.633-1.334,0.851-2.049L31.229,17.736zM16,20.871c-2.69,0-4.872-2.182-4.872-4.871c0-2.69,2.182-4.872,4.872-4.872c2.689,0,4.871,2.182,4.871,4.872C20.871,18.689,18.689,20.871,16,20.871z"></path><title>Link options.</title></g></g></g></g><!--z-index:48--><g   id="j_20" ><path  stroke="#707070" d="M 2003 1109 L 1024 1521" id="v-240" stroke-width="2" stroke-dasharray="30 30" fill="none" style="opacity: 1;"></path><path  fill="black" stroke="black" d="M 0 0 0 0" transform="matrix(-0.9220224994677694,0.3871362944431937,-0.3871362944431937,-0.9220224994677694,2003,1109.469970703125)"></path><path  fill="#707070" stroke="#707070" d="M 20 0 L 0 10 L 20 20 z" id="v-242" transform="matrix(0.9220224994677692,-0.38713629444319425,0.38713629444319425,0.9220224994677692,1020.1286269046403,1511.3098293560042)" style="opacity: 1;"></path><path  d="M 2003 1109 L 1024 1521" id="v-241" fill="none" style="cursor: auto; pointer-events: visiblepainted;"></path><g ><g id="v-231"  label-idx="0" cursor="move" transform="matrix(1,0,0,1,1513.5,1315)" style="cursor: default; opacity: 1;"><rect joint-selector="rect" id="v-235" fill="#ffffff" rx="3" ry="3" pointer-events="none" width="154.3376922607422" height="59.691917419433594" transform="matrix(1,0,0,1,-75.3,-29.8)"></rect><text joint-selector="text" id="v-234" font-size="24px" xml:space="preserve" y="0.8em" fill="#707070" text-anchor="middle" pointer-events="none" font-family="Open Sans" font-weight="normal" transform="matrix(1,0,0,1,0,-24.3)"><tspan dy="0" >monitors and</tspan><tspan dy="1.2em" x="0" >observes</tspan></text></g><g id="v-232"  label-idx="1" cursor="move" transform="matrix(1,0,0,1,1513.5,1355.800048828125)" style="cursor: default; opacity: 1;"><rect joint-selector="rect" id="v-237" fill="#ffffff" rx="3" ry="3" pointer-events="none" width="126.70287322998047" height="24.713534355163574" transform="matrix(1,0,0,1,-66.2,-12.3)"></rect><text joint-selector="text" id="v-236" font-size="17px" xml:space="preserve" y="0.8em" fill="#707070" text-anchor="middle" pointer-events="none" font-family="Open Sans" font-weight="normal" transform="matrix(1,0,0,1,0,-7.4)"><tspan dy="0" >[logs | metrics]</tspan></text></g><g id="v-233"  label-idx="2" cursor="move" transform="matrix(1,0,0,1,1503.5,1364.199951171875)" style="cursor: default; opacity: 1;"><rect joint-selector="rect" id="v-239" fill="#ffffff" rx="3" ry="3"  width="0" height="0" transform="matrix(1,0,0,1,0,0)" display="none"></rect><text joint-selector="text" id="v-238" fill="#000000" font-size="14" text-anchor="middle" pointer-events="none"></text></g></g><g  display="none" style="display: none;"></g><g  id="v-244" display="none"><g  id="v-229"><path  end="source" d="M 26 0 L 0 13 L 26 26 z"></path></g><g  id="v-230"><path  end="target" d="M 26 0 L 0 13 L 26 26 z"></path></g></g><g  id="v-243" display="none"><g  id="v-228" transform="translate(1966.1317501015553, 1124.515545411807) "><g  event="remove"><circle r="11"></circle><path transform="scale(.8) translate(-16, -16)" d="M24.778,21.419 19.276,15.917 24.777,10.415 21.949,7.585 16.447,13.087 10.945,7.585 8.117,10.415 13.618,15.917 8.116,21.419 10.946,24.248 16.447,18.746 21.948,24.248z"></path><title>Remove link.</title></g><g  event="link:options"><circle r="11" transform="translate(25)"></circle><path fill="white" transform="scale(.55) translate(29, -16)" d="M31.229,17.736c0.064-0.571,0.104-1.148,0.104-1.736s-0.04-1.166-0.104-1.737l-4.377-1.557c-0.218-0.716-0.504-1.401-0.851-2.05l1.993-4.192c-0.725-0.91-1.549-1.734-2.458-2.459l-4.193,1.994c-0.647-0.347-1.334-0.632-2.049-0.849l-1.558-4.378C17.165,0.708,16.588,0.667,16,0.667s-1.166,0.041-1.737,0.105L12.707,5.15c-0.716,0.217-1.401,0.502-2.05,0.849L6.464,4.005C5.554,4.73,4.73,5.554,4.005,6.464l1.994,4.192c-0.347,0.648-0.632,1.334-0.849,2.05l-4.378,1.557C0.708,14.834,0.667,15.412,0.667,16s0.041,1.165,0.105,1.736l4.378,1.558c0.217,0.715,0.502,1.401,0.849,2.049l-1.994,4.193c0.725,0.909,1.549,1.733,2.459,2.458l4.192-1.993c0.648,0.347,1.334,0.633,2.05,0.851l1.557,4.377c0.571,0.064,1.148,0.104,1.737,0.104c0.588,0,1.165-0.04,1.736-0.104l1.558-4.377c0.715-0.218,1.399-0.504,2.049-0.851l4.193,1.993c0.909-0.725,1.733-1.549,2.458-2.458l-1.993-4.193c0.347-0.647,0.633-1.334,0.851-2.049L31.229,17.736zM16,20.871c-2.69,0-4.872-2.182-4.872-4.871c0-2.69,2.182-4.872,4.872-4.872c2.689,0,4.871,2.182,4.871,4.872C20.871,18.689,18.689,20.871,16,20.871z"></path><title>Link options.</title></g></g></g></g><!--z-index:49--><g   id="j_21" ><path  stroke="#707070" d="M 1643 2965 L 1830 3265" id="v-257" stroke-width="2" stroke-dasharray="30 30" fill="none" style="opacity: 1;"></path><path  fill="black" stroke="black" d="M 0 0 0 0" transform="matrix(0.52999893008336,0.8479983102049754,-0.8479983102049754,0.52999893008336,1642.75,2965)"></path><path  fill="#707070" stroke="#707070" d="M 20 0 L 0 10 L 20 20 z" id="v-259" transform="matrix(-0.5299989865422614,-0.8479982749181603,0.8479982749181603,-0.5299989865422614,1821.769958288116,3270.299992145854)" style="opacity: 1;"></path><path  d="M 1643 2965 L 1830 3265" id="v-258" fill="none" style="cursor: auto; pointer-events: visiblepainted;"></path><g ><g id="v-251"  label-idx="0" cursor="move" transform="matrix(1,0,0,1,1736.5,3115)" style="cursor: default; opacity: 1;"><rect joint-selector="rect" id="v-254" fill="#ffffff" rx="3" ry="3" pointer-events="none" width="159.37074279785156" height="59.691917419433594" transform="matrix(1,0,0,1,-82.3,-29.8)"></rect><text joint-selector="text" id="v-253" font-size="24px" xml:space="preserve" y="0.8em" fill="#707070" text-anchor="middle" pointer-events="none" font-family="Open Sans" font-weight="normal" transform="matrix(1,0,0,1,0,-24.3)"><tspan dy="0" >authenticates</tspan><tspan dy="1.2em" x="0" >users</tspan></text></g><g id="v-252"  label-idx="1" cursor="move" transform="matrix(1,0,0,1,1726.5,3155.800048828125)" style="cursor: default; opacity: 1;"><rect joint-selector="rect" id="v-256" fill="#ffffff" rx="3" ry="3"  width="0" height="0" transform="matrix(1,0,0,1,0,0)" display="none"></rect><text joint-selector="text" id="v-255" fill="#000000" font-size="14" text-anchor="middle" pointer-events="none"></text></g></g><g  display="none" style="display: none;"></g><g  id="v-261" display="none"><g  id="v-249"><path  end="source" d="M 26 0 L 0 13 L 26 26 z"></path></g><g  id="v-250"><path  end="target" d="M 26 0 L 0 13 L 26 26 z"></path></g></g><g  id="v-260" display="none"><g  id="v-248" transform="translate(1664.1592588038857, 2998.945334979496) "><g  event="remove"><circle r="11"></circle><path transform="scale(.8) translate(-16, -16)" d="M24.778,21.419 19.276,15.917 24.777,10.415 21.949,7.585 16.447,13.087 10.945,7.585 8.117,10.415 13.618,15.917 8.116,21.419 10.946,24.248 16.447,18.746 21.948,24.248z"></path><title>Remove link.</title></g><g  event="link:options"><circle r="11" transform="translate(25)"></circle><path fill="white" transform="scale(.55) translate(29, -16)" d="M31.229,17.736c0.064-0.571,0.104-1.148,0.104-1.736s-0.04-1.166-0.104-1.737l-4.377-1.557c-0.218-0.716-0.504-1.401-0.851-2.05l1.993-4.192c-0.725-0.91-1.549-1.734-2.458-2.459l-4.193,1.994c-0.647-0.347-1.334-0.632-2.049-0.849l-1.558-4.378C17.165,0.708,16.588,0.667,16,0.667s-1.166,0.041-1.737,0.105L12.707,5.15c-0.716,0.217-1.401,0.502-2.05,0.849L6.464,4.005C5.554,4.73,4.73,5.554,4.005,6.464l1.994,4.192c-0.347,0.648-0.632,1.334-0.849,2.05l-4.378,1.557C0.708,14.834,0.667,15.412,0.667,16s0.041,1.165,0.105,1.736l4.378,1.558c0.217,0.715,0.502,1.401,0.849,2.049l-1.994,4.193c0.725,0.909,1.549,1.733,2.459,2.458l4.192-1.993c0.648,0.347,1.334,0.633,2.05,0.851l1.557,4.377c0.571,0.064,1.148,0.104,1.737,0.104c0.588,0,1.165-0.04,1.736-0.104l1.558-4.377c0.715-0.218,1.399-0.504,2.049-0.851l4.193,1.993c0.909-0.725,1.733-1.549,2.458-2.458l-1.993-4.193c0.347-0.647,0.633-1.334,0.851-2.049L31.229,17.736zM16,20.871c-2.69,0-4.872-2.182-4.872-4.871c0-2.69,2.182-4.872,4.872-4.872c2.689,0,4.871,2.182,4.871,4.872C20.871,18.689,18.689,20.871,16,20.871z"></path><title>Link options.</title></g></g></g></g><!--z-index:50--><g   id="j_22" ><path  stroke="#707070" d="M 987 2365 L 1362 2665" id="v-274" stroke-width="2" stroke-dasharray="30 30" fill="none" style="opacity: 1;"></path><path  fill="black" stroke="black" d="M 0 0 0 0" transform="matrix(0.7808688000832672,0.624695059254128,-0.624695059254128,0.7808688000832672,986.5,2365)"></path><path  fill="#707070" stroke="#707070" d="M 20 0 L 0 10 L 20 20 z" id="v-276" transform="matrix(-0.7808688416748548,-0.6246950072646416,0.6246950072646416,-0.7808688416748548,1355.2530225237897,2672.808568176895)" style="opacity: 1;"></path><path  d="M 987 2365 L 1362 2665" id="v-275" fill="none" style="cursor: auto; pointer-events: visiblepainted;"></path><g ><g id="v-268"  label-idx="0" cursor="move" transform="matrix(1,0,0,1,1174.5,2515)" style="cursor: default; opacity: 1;"><rect joint-selector="rect" id="v-271" fill="#ffffff" rx="3" ry="3" pointer-events="none" width="136.54788208007812" height="59.691917419433594" transform="matrix(1,0,0,1,-67.8,-29.8)"></rect><text joint-selector="text" id="v-270" font-size="24px" xml:space="preserve" y="0.8em" fill="#707070" text-anchor="middle" pointer-events="none" font-family="Open Sans" font-weight="normal" transform="matrix(1,0,0,1,0,-24.3)"><tspan dy="0" >check</tspan><tspan dy="1.2em" x="0" >permissions</tspan></text></g><g id="v-269"  label-idx="1" cursor="move" transform="matrix(1,0,0,1,1164.5,2555.800048828125)" style="cursor: default; opacity: 1;"><rect joint-selector="rect" id="v-273" fill="#ffffff" rx="3" ry="3"  width="0" height="0" transform="matrix(1,0,0,1,0,0)" display="none"></rect><text joint-selector="text" id="v-272" fill="#000000" font-size="14" text-anchor="middle" pointer-events="none"></text></g></g><g  display="none" style="display: none;"></g><g  id="v-278" display="none"><g  id="v-266"><path  end="source" d="M 26 0 L 0 13 L 26 26 z"></path></g><g  id="v-267"><path  end="target" d="M 26 0 L 0 13 L 26 26 z"></path></g></g><g  id="v-277" display="none"><g  id="v-265" transform="translate(1018.2347523777213, 2389.987801902177) "><g  event="remove"><circle r="11"></circle><path transform="scale(.8) translate(-16, -16)" d="M24.778,21.419 19.276,15.917 24.777,10.415 21.949,7.585 16.447,13.087 10.945,7.585 8.117,10.415 13.618,15.917 8.116,21.419 10.946,24.248 16.447,18.746 21.948,24.248z"></path><title>Remove link.</title></g><g  event="link:options"><circle r="11" transform="translate(25)"></circle><path fill="white" transform="scale(.55) translate(29, -16)" d="M31.229,17.736c0.064-0.571,0.104-1.148,0.104-1.736s-0.04-1.166-0.104-1.737l-4.377-1.557c-0.218-0.716-0.504-1.401-0.851-2.05l1.993-4.192c-0.725-0.91-1.549-1.734-2.458-2.459l-4.193,1.994c-0.647-0.347-1.334-0.632-2.049-0.849l-1.558-4.378C17.165,0.708,16.588,0.667,16,0.667s-1.166,0.041-1.737,0.105L12.707,5.15c-0.716,0.217-1.401,0.502-2.05,0.849L6.464,4.005C5.554,4.73,4.73,5.554,4.005,6.464l1.994,4.192c-0.347,0.648-0.632,1.334-0.849,2.05l-4.378,1.557C0.708,14.834,0.667,15.412,0.667,16s0.041,1.165,0.105,1.736l4.378,1.558c0.217,0.715,0.502,1.401,0.849,2.049l-1.994,4.193c0.725,0.909,1.549,1.733,2.459,2.458l4.192-1.993c0.648,0.347,1.334,0.633,2.05,0.851l1.557,4.377c0.571,0.064,1.148,0.104,1.737,0.104c0.588,0,1.165-0.04,1.736-0.104l1.558-4.377c0.715-0.218,1.399-0.504,2.049-0.851l4.193,1.993c0.909-0.725,1.733-1.549,2.458-2.458l-1.993-4.193c0.347-0.647,0.633-1.334,0.851-2.049L31.229,17.736zM16,20.871c-2.69,0-4.872-2.182-4.872-4.871c0-2.69,2.182-4.872,4.872-4.872c2.689,0,4.871,2.182,4.871,4.872C20.871,18.689,18.689,20.871,16,20.871z"></path><title>Link options.</title></g></g></g></g><!--z-index:51--><g   id="j_23" ><path  stroke="#707070" d="M 674 2365 L 430 2657 C 425.99999999999994 2662.333333333333 423.99999999999994 2668.333333333333 424 2675 L 424 2955 C 423.99999999999994 2961.6666666666665 426.99999999999994 2966.6666666666665 433 2970 L 949 3280" id="v-296" stroke-width="2" stroke-dasharray="30 30" fill="none" style="opacity: 1;"></path><path  fill="black" stroke="black" d="M 0 0 0 0" transform="matrix(-0.6401844186703123,0.7682212637591818,-0.7682212637591818,-0.6401844186703123,674,2365)"></path><path  fill="#707070" stroke="#707070" d="M 20 0 L 0 10 L 20 20 z" id="v-298" transform="matrix(-0.8574928911956579,-0.5144958129556659,0.5144958129556659,-0.8574928911956579,943.8550196105249,3288.574867510263)" style="opacity: 1;"></path><path  d="M 674 2365 L 430 2657 C 425.99999999999994 2662.333333333333 423.99999999999994 2668.333333333333 424 2675 L 424 2955 C 423.99999999999994 2961.6666666666665 426.99999999999994 2966.6666666666665 433 2970 L 949 3280" id="v-297" fill="none" style="cursor: auto; pointer-events: visiblepainted;"></path><g ><g id="v-287"  label-idx="0" cursor="move" transform="matrix(1,0,0,1,424,2925.285888671875)" style="cursor: default; opacity: 1;"><rect joint-selector="rect" id="v-291" fill="#ffffff" rx="3" ry="3" pointer-events="none" width="165.21359252929688" height="30.891918182373047" transform="matrix(1,0,0,1,-82.2,-15.4)"></rect><text joint-selector="text" id="v-290" font-size="24px" xml:space="preserve" y="0.8em" fill="#707070" text-anchor="middle" pointer-events="none" font-family="Open Sans" font-weight="normal" transform="matrix(1,0,0,1,0,-9.9)"><tspan dy="0" >publishes sites</tspan></text></g><g id="v-288"  label-idx="1" cursor="move" transform="matrix(1,0,0,1,424,2951.685791015625)" style="cursor: default; opacity: 1;"><rect joint-selector="rect" id="v-293" fill="#ffffff" rx="3" ry="3" pointer-events="none" width="180.5865020751953" height="24.713534355163574" transform="matrix(1,0,0,1,-93.1,-12.3)"></rect><text joint-selector="text" id="v-292" font-size="17px" xml:space="preserve" y="0.8em" fill="#707070" text-anchor="middle" pointer-events="none" font-family="Open Sans" font-weight="normal" transform="matrix(1,0,0,1,0,-7.4)"><tspan dy="0" >[deployment pipeline]</tspan></text></g><g id="v-289"  label-idx="2" cursor="move" transform="matrix(1,0,0,1,414,2960.0859375)" style="cursor: default; opacity: 1;"><rect joint-selector="rect" id="v-295" fill="#ffffff" rx="3" ry="3"  width="0" height="0" transform="matrix(1,0,0,1,0,0)" display="none"></rect><text joint-selector="text" id="v-294" fill="#000000" font-size="14" text-anchor="middle" pointer-events="none"></text></g></g><g  display="none" style="display: none;"><g  transform="translate(424, 2665)" id="v-423"><circle  idx="0" r="10"></circle><path  idx="0" d="M16,5.333c-7.732,0-14,4.701-14,10.5c0,1.982,0.741,3.833,2.016,5.414L2,25.667l5.613-1.441c2.339,1.317,5.237,2.107,8.387,2.107c7.732,0,14-4.701,14-10.5C30,10.034,23.732,5.333,16,5.333z" transform="translate(5, -33)"></path><path  idx="0" transform="scale(.8) translate(9.5, -37)" d="M24.778,21.419 19.276,15.917 24.777,10.415 21.949,7.585 16.447,13.087 10.945,7.585 8.117,10.415 13.618,15.917 8.116,21.419 10.946,24.248 16.447,18.746 21.948,24.248z"><title>Remove vertex.</title></path></g><g  transform="translate(424, 2965)" id="v-424"><circle  idx="1" r="10"></circle><path  idx="1" d="M16,5.333c-7.732,0-14,4.701-14,10.5c0,1.982,0.741,3.833,2.016,5.414L2,25.667l5.613-1.441c2.339,1.317,5.237,2.107,8.387,2.107c7.732,0,14-4.701,14-10.5C30,10.034,23.732,5.333,16,5.333z" transform="translate(5, -33)"></path><path  idx="1" transform="scale(.8) translate(9.5, -37)" d="M24.778,21.419 19.276,15.917 24.777,10.415 21.949,7.585 16.447,13.087 10.945,7.585 8.117,10.415 13.618,15.917 8.116,21.419 10.946,24.248 16.447,18.746 21.948,24.248z"><title>Remove vertex.</title></path></g></g><g  id="v-300" display="none"><g  id="v-285"><path  end="source" d="M 26 0 L 0 13 L 26 26 z"></path></g><g  id="v-286"><path  end="target" d="M 26 0 L 0 13 L 26 26 z"></path></g></g><g  id="v-299" display="none"><g  id="v-282" transform="translate(648.3512894360913, 2395.694358543694) "><g  event="remove"><circle r="11"></circle><path transform="scale(.8) translate(-16, -16)" d="M24.778,21.419 19.276,15.917 24.777,10.415 21.949,7.585 16.447,13.087 10.945,7.585 8.117,10.415 13.618,15.917 8.116,21.419 10.946,24.248 16.447,18.746 21.948,24.248z"></path><title>Remove link.</title></g><g  event="link:options"><circle r="11" transform="translate(25)"></circle><path fill="white" transform="scale(.55) translate(29, -16)" d="M31.229,17.736c0.064-0.571,0.104-1.148,0.104-1.736s-0.04-1.166-0.104-1.737l-4.377-1.557c-0.218-0.716-0.504-1.401-0.851-2.05l1.993-4.192c-0.725-0.91-1.549-1.734-2.458-2.459l-4.193,1.994c-0.647-0.347-1.334-0.632-2.049-0.849l-1.558-4.378C17.165,0.708,16.588,0.667,16,0.667s-1.166,0.041-1.737,0.105L12.707,5.15c-0.716,0.217-1.401,0.502-2.05,0.849L6.464,4.005C5.554,4.73,4.73,5.554,4.005,6.464l1.994,4.192c-0.347,0.648-0.632,1.334-0.849,2.05l-4.378,1.557C0.708,14.834,0.667,15.412,0.667,16s0.041,1.165,0.105,1.736l4.378,1.558c0.217,0.715,0.502,1.401,0.849,2.049l-1.994,4.193c0.725,0.909,1.549,1.733,2.459,2.458l4.192-1.993c0.648,0.347,1.334,0.633,2.05,0.851l1.557,4.377c0.571,0.064,1.148,0.104,1.737,0.104c0.588,0,1.165-0.04,1.736-0.104l1.558-4.377c0.715-0.218,1.399-0.504,2.049-0.851l4.193,1.993c0.909-0.725,1.733-1.549,2.458-2.458l-1.993-4.193c0.347-0.647,0.633-1.334,0.851-2.049L31.229,17.736zM16,20.871c-2.69,0-4.872-2.182-4.872-4.871c0-2.69,2.182-4.872,4.872-4.872c2.689,0,4.871,2.182,4.871,4.872C20.871,18.689,18.689,20.871,16,20.871z"></path><title>Link options.</title></g></g></g></g><!--z-index:52--><g   id="j_24" ><path  stroke="#707070" d="M 1455 2965 L 1268 3265" id="v-313" stroke-width="2" stroke-dasharray="30 30" fill="none" style="opacity: 1;"></path><path  fill="black" stroke="black" d="M 0 0 0 0" transform="matrix(-0.5299989865422612,0.8479982749181605,-0.8479982749181605,-0.5299989865422612,1455.25,2965)"></path><path  fill="#707070" stroke="#707070" d="M 20 0 L 0 10 L 20 20 z" id="v-315" transform="matrix(0.5299987607066415,-0.8479984160653982,0.8479984160653982,0.5299987607066415,1259.2700770604047,3259.7000160848374)" style="opacity: 1;"></path><path  d="M 1455 2965 L 1268 3265" id="v-314" fill="none" style="cursor: auto; pointer-events: visiblepainted;"></path><g ><g id="v-307"  label-idx="0" cursor="move" transform="matrix(1,0,0,1,1361.5,3115)" style="cursor: default; opacity: 1;"><rect joint-selector="rect" id="v-310" fill="#ffffff" rx="3" ry="3" pointer-events="none" width="160.89251708984375" height="59.691917419433594" transform="matrix(1,0,0,1,-83.1,-29.8)"></rect><text joint-selector="text" id="v-309" font-size="24px" xml:space="preserve" y="0.8em" fill="#707070" text-anchor="middle" pointer-events="none" font-family="Open Sans" font-weight="normal" transform="matrix(1,0,0,1,0,-24.3)"><tspan dy="0" >validate plans</tspan><tspan dy="1.2em" x="0" >and limits</tspan></text></g><g id="v-308"  label-idx="1" cursor="move" transform="matrix(1,0,0,1,1351.5,3155.800048828125)" style="cursor: default; opacity: 1;"><rect joint-selector="rect" id="v-312" fill="#ffffff" rx="3" ry="3"  width="0" height="0" transform="matrix(1,0,0,1,0,0)" display="none"></rect><text joint-selector="text" id="v-311" fill="#000000" font-size="14" text-anchor="middle" pointer-events="none"></text></g></g><g  display="none" style="display: none;"></g><g  id="v-317" display="none"><g  id="v-305"><path  end="source" d="M 26 0 L 0 13 L 26 26 z"></path></g><g  id="v-306"><path  end="target" d="M 26 0 L 0 13 L 26 26 z"></path></g></g><g  id="v-316" display="none"><g  id="v-304" transform="translate(1433.8407411961143, 2998.945334979496) "><g  event="remove"><circle r="11"></circle><path transform="scale(.8) translate(-16, -16)" d="M24.778,21.419 19.276,15.917 24.777,10.415 21.949,7.585 16.447,13.087 10.945,7.585 8.117,10.415 13.618,15.917 8.116,21.419 10.946,24.248 16.447,18.746 21.948,24.248z"></path><title>Remove link.</title></g><g  event="link:options"><circle r="11" transform="translate(25)"></circle><path fill="white" transform="scale(.55) translate(29, -16)" d="M31.229,17.736c0.064-0.571,0.104-1.148,0.104-1.736s-0.04-1.166-0.104-1.737l-4.377-1.557c-0.218-0.716-0.504-1.401-0.851-2.05l1.993-4.192c-0.725-0.91-1.549-1.734-2.458-2.459l-4.193,1.994c-0.647-0.347-1.334-0.632-2.049-0.849l-1.558-4.378C17.165,0.708,16.588,0.667,16,0.667s-1.166,0.041-1.737,0.105L12.707,5.15c-0.716,0.217-1.401,0.502-2.05,0.849L6.464,4.005C5.554,4.73,4.73,5.554,4.005,6.464l1.994,4.192c-0.347,0.648-0.632,1.334-0.849,2.05l-4.378,1.557C0.708,14.834,0.667,15.412,0.667,16s0.041,1.165,0.105,1.736l4.378,1.558c0.217,0.715,0.502,1.401,0.849,2.049l-1.994,4.193c0.725,0.909,1.549,1.733,2.459,2.458l4.192-1.993c0.648,0.347,1.334,0.633,2.05,0.851l1.557,4.377c0.571,0.064,1.148,0.104,1.737,0.104c0.588,0,1.165-0.04,1.736-0.104l1.558-4.377c0.715-0.218,1.399-0.504,2.049-0.851l4.193,1.993c0.909-0.725,1.733-1.549,2.458-2.458l-1.993-4.193c0.347-0.647,0.633-1.334,0.851-2.049L31.229,17.736zM16,20.871c-2.69,0-4.872-2.182-4.872-4.871c0-2.69,2.182-4.872,4.872-4.872c2.689,0,4.871,2.182,4.871,4.872C20.871,18.689,18.689,20.871,16,20.871z"></path><title>Link options.</title></g></g></g></g><!--z-index:53--><g   id="j_25" ><path  stroke="#707070" d="M 930 3054 L 1073 3265" id="v-330" stroke-width="2" stroke-dasharray="30 30" fill="none" style="opacity: 1;"></path><path  fill="black" stroke="black" d="M 0 0 0 0" transform="matrix(0.559513332650399,0.8288213502235834,-0.8288213502235834,0.559513332650399,930.2999877929688,3054)"></path><path  fill="#707070" stroke="#707070" d="M 20 0 L 0 10 L 20 20 z" id="v-332" transform="matrix(-0.5595132222861557,-0.8288214247272828,0.8288214247272828,-0.5595132222861557,1064.4518154365262,3270.5950163920093)" style="opacity: 1;"></path><path  d="M 930 3054 L 1073 3265" id="v-331" fill="none" style="cursor: auto; pointer-events: visiblepainted;"></path><g ><g id="v-324"  label-idx="0" cursor="move" transform="matrix(1,0,0,1,1001.5,3159.5)" style="cursor: default; opacity: 1;"><rect joint-selector="rect" id="v-327" fill="#ffffff" rx="3" ry="3" pointer-events="none" width="139.70626831054688" height="30.891918182373047" transform="matrix(1,0,0,1,-72.5,-15.4)"></rect><text joint-selector="text" id="v-326" font-size="24px" xml:space="preserve" y="0.8em" fill="#707070" text-anchor="middle" pointer-events="none" font-family="Open Sans" font-weight="normal" transform="matrix(1,0,0,1,0,-9.9)"><tspan dy="0" >deliver sites</tspan></text></g><g id="v-325"  label-idx="1" cursor="move" transform="matrix(1,0,0,1,991.5,3185.89990234375)" style="cursor: default; opacity: 1;"><rect joint-selector="rect" id="v-329" fill="#ffffff" rx="3" ry="3"  width="0" height="0" transform="matrix(1,0,0,1,0,0)" display="none"></rect><text joint-selector="text" id="v-328" fill="#000000" font-size="14" text-anchor="middle" pointer-events="none"></text></g></g><g  display="none" style="display: none;"></g><g  id="v-334" display="none"><g  id="v-322"><path  end="source" d="M 26 0 L 0 13 L 26 26 z"></path></g><g  id="v-323"><path  end="target" d="M 26 0 L 0 13 L 26 26 z"></path></g></g><g  id="v-333" display="none"><g  id="v-321" transform="translate(952.4408651186652, 3087.112045734534) "><g  event="remove"><circle r="11"></circle><path transform="scale(.8) translate(-16, -16)" d="M24.778,21.419 19.276,15.917 24.777,10.415 21.949,7.585 16.447,13.087 10.945,7.585 8.117,10.415 13.618,15.917 8.116,21.419 10.946,24.248 16.447,18.746 21.948,24.248z"></path><title>Remove link.</title></g><g  event="link:options"><circle r="11" transform="translate(25)"></circle><path fill="white" transform="scale(.55) translate(29, -16)" d="M31.229,17.736c0.064-0.571,0.104-1.148,0.104-1.736s-0.04-1.166-0.104-1.737l-4.377-1.557c-0.218-0.716-0.504-1.401-0.851-2.05l1.993-4.192c-0.725-0.91-1.549-1.734-2.458-2.459l-4.193,1.994c-0.647-0.347-1.334-0.632-2.049-0.849l-1.558-4.378C17.165,0.708,16.588,0.667,16,0.667s-1.166,0.041-1.737,0.105L12.707,5.15c-0.716,0.217-1.401,0.502-2.05,0.849L6.464,4.005C5.554,4.73,4.73,5.554,4.005,6.464l1.994,4.192c-0.347,0.648-0.632,1.334-0.849,2.05l-4.378,1.557C0.708,14.834,0.667,15.412,0.667,16s0.041,1.165,0.105,1.736l4.378,1.558c0.217,0.715,0.502,1.401,0.849,2.049l-1.994,4.193c0.725,0.909,1.549,1.733,2.459,2.458l4.192-1.993c0.648,0.347,1.334,0.633,2.05,0.851l1.557,4.377c0.571,0.064,1.148,0.104,1.737,0.104c0.588,0,1.165-0.04,1.736-0.104l1.558-4.377c0.715-0.218,1.399-0.504,2.049-0.851l4.193,1.993c0.909-0.725,1.733-1.549,2.458-2.458l-1.993-4.193c0.347-0.647,0.633-1.334,0.851-2.049L31.229,17.736zM16,20.871c-2.69,0-4.872-2.182-4.872-4.871c0-2.69,2.182-4.872,4.872-4.872c2.689,0,4.871,2.182,4.871,4.872C20.871,18.689,18.689,20.871,16,20.871z"></path><title>Link options.</title></g></g></g></g><!--z-index:54--><g   id="j_26" ><path  stroke="#707070" d="M 874 2065 L 945 1924 C 947.6666666666666 1917.9999999999998 947.6666666666666 1911.9999999999998 945 1906 L 874 1765" id="v-347" stroke-width="2" stroke-dasharray="30 30" fill="none" style="opacity: 1;"></path><path  fill="black" stroke="black" d="M 0 0 0 0" transform="matrix(0.4472137875035034,-0.8944270949981173,0.8944270949981173,0.4472137875035034,874,2065)"></path><path  fill="#707070" stroke="#707070" d="M 20 0 L 0 10 L 20 20 z" id="v-349" transform="matrix(0.4472136088532365,0.8944271843232765,-0.8944271843232765,0.4472136088532365,882.9442426882941,1760.5278059354223)" style="opacity: 1;"></path><path  d="M 874 2065 L 945 1924 C 947.6666666666666 1917.9999999999998 947.6666666666666 1911.9999999999998 945 1906 L 874 1765" id="v-348" fill="none" style="cursor: auto; pointer-events: visiblepainted;"></path><g ><g id="v-341"  label-idx="0" cursor="move" transform="matrix(1,0,0,1,947,1915)" style="cursor: default; opacity: 1;"><rect joint-selector="rect" id="v-344" fill="#ffffff" rx="3" ry="3" pointer-events="none" width="206.28501892089844" height="30.891918182373047" transform="matrix(1,0,0,1,-105.8,-15.4)"></rect><text joint-selector="text" id="v-343" font-size="24px" xml:space="preserve" y="0.8em" fill="#707070" text-anchor="middle" pointer-events="none" font-family="Open Sans" font-weight="normal" transform="matrix(1,0,0,1,0,-9.9)"><tspan dy="0" >sends logs/events</tspan></text></g><g id="v-342"  label-idx="1" cursor="move" transform="matrix(1,0,0,1,937,1941.4000244140625)" style="cursor: default; opacity: 1;"><rect joint-selector="rect" id="v-346" fill="#ffffff" rx="3" ry="3"  width="0" height="0" transform="matrix(1,0,0,1,0,0)" display="none"></rect><text joint-selector="text" id="v-345" fill="#000000" font-size="14" text-anchor="middle" pointer-events="none"></text></g></g><g  display="none" style="display: none;"><g  transform="translate(949, 1915)" id="v-425"><circle  idx="0" r="10"></circle><path  idx="0" d="M16,5.333c-7.732,0-14,4.701-14,10.5c0,1.982,0.741,3.833,2.016,5.414L2,25.667l5.613-1.441c2.339,1.317,5.237,2.107,8.387,2.107c7.732,0,14-4.701,14-10.5C30,10.034,23.732,5.333,16,5.333z" transform="translate(5, -33)"></path><path  idx="0" transform="scale(.8) translate(9.5, -37)" d="M24.778,21.419 19.276,15.917 24.777,10.415 21.949,7.585 16.447,13.087 10.945,7.585 8.117,10.415 13.618,15.917 8.116,21.419 10.946,24.248 16.447,18.746 21.948,24.248z"><title>Remove vertex.</title></path></g></g><g  id="v-351" display="none"><g  id="v-339"><path  end="source" d="M 26 0 L 0 13 L 26 26 z"></path></g><g  id="v-340"><path  end="target" d="M 26 0 L 0 13 L 26 26 z"></path></g></g><g  id="v-350" display="none"><g  id="v-338" transform="translate(891.9898231581151, 2029.2737314747296) "><g  event="remove"><circle r="11"></circle><path transform="scale(.8) translate(-16, -16)" d="M24.778,21.419 19.276,15.917 24.777,10.415 21.949,7.585 16.447,13.087 10.945,7.585 8.117,10.415 13.618,15.917 8.116,21.419 10.946,24.248 16.447,18.746 21.948,24.248z"></path><title>Remove link.</title></g><g  event="link:options"><circle r="11" transform="translate(25)"></circle><path fill="white" transform="scale(.55) translate(29, -16)" d="M31.229,17.736c0.064-0.571,0.104-1.148,0.104-1.736s-0.04-1.166-0.104-1.737l-4.377-1.557c-0.218-0.716-0.504-1.401-0.851-2.05l1.993-4.192c-0.725-0.91-1.549-1.734-2.458-2.459l-4.193,1.994c-0.647-0.347-1.334-0.632-2.049-0.849l-1.558-4.378C17.165,0.708,16.588,0.667,16,0.667s-1.166,0.041-1.737,0.105L12.707,5.15c-0.716,0.217-1.401,0.502-2.05,0.849L6.464,4.005C5.554,4.73,4.73,5.554,4.005,6.464l1.994,4.192c-0.347,0.648-0.632,1.334-0.849,2.05l-4.378,1.557C0.708,14.834,0.667,15.412,0.667,16s0.041,1.165,0.105,1.736l4.378,1.558c0.217,0.715,0.502,1.401,0.849,2.049l-1.994,4.193c0.725,0.909,1.549,1.733,2.459,2.458l4.192-1.993c0.648,0.347,1.334,0.633,2.05,0.851l1.557,4.377c0.571,0.064,1.148,0.104,1.737,0.104c0.588,0,1.165-0.04,1.736-0.104l1.558-4.377c0.715-0.218,1.399-0.504,2.049-0.851l4.193,1.993c0.909-0.725,1.733-1.549,2.458-2.458l-1.993-4.193c0.347-0.647,0.633-1.334,0.851-2.049L31.229,17.736zM16,20.871c-2.69,0-4.872-2.182-4.872-4.871c0-2.69,2.182-4.872,4.872-4.872c2.689,0,4.871,2.182,4.871,4.872C20.871,18.689,18.689,20.871,16,20.871z"></path><title>Link options.</title></g></g></g></g><!--z-index:55--><g   id="j_27" ><path  stroke="#707070" d="M 724 1765 L 653 1906 C 650.3333333333333 1911.9999999999998 650.3333333333333 1917.9999999999998 653 1924 L 724 2065" id="v-364" stroke-width="2" stroke-dasharray="30 30" fill="none" style="opacity: 1;"></path><path  fill="black" stroke="black" d="M 0 0 0 0" transform="matrix(-0.4472135493031434,0.8944272140983217,-0.8944272140983217,-0.4472135493031434,724,1765)"></path><path  fill="#707070" stroke="#707070" d="M 20 0 L 0 10 L 20 20 z" id="v-366" transform="matrix(-0.4472135493031436,-0.8944272140983216,0.8944272140983216,-0.4472135493031436,715.0557564184545,2069.472071696515)" style="opacity: 1;"></path><path  d="M 724 1765 L 653 1906 C 650.3333333333333 1911.9999999999998 650.3333333333333 1917.9999999999998 653 1924 L 724 2065" id="v-365" fill="none" style="cursor: auto; pointer-events: visiblepainted;"></path><g ><g id="v-358"  label-idx="0" cursor="move" transform="matrix(1,0,0,1,651,1915)" style="cursor: default; opacity: 1;"><rect joint-selector="rect" id="v-361" fill="#ffffff" rx="3" ry="3" pointer-events="none" width="128.32902145385742" height="59.691917419433594" transform="matrix(1,0,0,1,-63.8,-29.8)"></rect><text joint-selector="text" id="v-360" font-size="24px" xml:space="preserve" y="0.8em" fill="#707070" text-anchor="middle" pointer-events="none" font-family="Open Sans" font-weight="normal" transform="matrix(1,0,0,1,0,-24.3)"><tspan dy="0" >consumes</tspan><tspan dy="1.2em" x="0" >logs/events</tspan></text></g><g id="v-359"  label-idx="1" cursor="move" transform="matrix(1,0,0,1,641,1955.800048828125)" style="cursor: default; opacity: 1;"><rect joint-selector="rect" id="v-363" fill="#ffffff" rx="3" ry="3"  width="0" height="0" transform="matrix(1,0,0,1,0,0)" display="none"></rect><text joint-selector="text" id="v-362" fill="#000000" font-size="14" text-anchor="middle" pointer-events="none"></text></g></g><g  display="none" style="display: none;"><g  transform="translate(649, 1915)" id="v-426"><circle  idx="0" r="10"></circle><path  idx="0" d="M16,5.333c-7.732,0-14,4.701-14,10.5c0,1.982,0.741,3.833,2.016,5.414L2,25.667l5.613-1.441c2.339,1.317,5.237,2.107,8.387,2.107c7.732,0,14-4.701,14-10.5C30,10.034,23.732,5.333,16,5.333z" transform="translate(5, -33)"></path><path  idx="0" transform="scale(.8) translate(9.5, -37)" d="M24.778,21.419 19.276,15.917 24.777,10.415 21.949,7.585 16.447,13.087 10.945,7.585 8.117,10.415 13.618,15.917 8.116,21.419 10.946,24.248 16.447,18.746 21.948,24.248z"><title>Remove vertex.</title></path></g></g><g  id="v-368" display="none"><g  id="v-356"><path  end="source" d="M 26 0 L 0 13 L 26 26 z"></path></g><g  id="v-357"><path  end="target" d="M 26 0 L 0 13 L 26 26 z"></path></g></g><g  id="v-367" display="none"><g  id="v-355" transform="translate(706.010176841885, 1800.7262685252708) "><g  event="remove"><circle r="11"></circle><path transform="scale(.8) translate(-16, -16)" d="M24.778,21.419 19.276,15.917 24.777,10.415 21.949,7.585 16.447,13.087 10.945,7.585 8.117,10.415 13.618,15.917 8.116,21.419 10.946,24.248 16.447,18.746 21.948,24.248z"></path><title>Remove link.</title></g><g  event="link:options"><circle r="11" transform="translate(25)"></circle><path fill="white" transform="scale(.55) translate(29, -16)" d="M31.229,17.736c0.064-0.571,0.104-1.148,0.104-1.736s-0.04-1.166-0.104-1.737l-4.377-1.557c-0.218-0.716-0.504-1.401-0.851-2.05l1.993-4.192c-0.725-0.91-1.549-1.734-2.458-2.459l-4.193,1.994c-0.647-0.347-1.334-0.632-2.049-0.849l-1.558-4.378C17.165,0.708,16.588,0.667,16,0.667s-1.166,0.041-1.737,0.105L12.707,5.15c-0.716,0.217-1.401,0.502-2.05,0.849L6.464,4.005C5.554,4.73,4.73,5.554,4.005,6.464l1.994,4.192c-0.347,0.648-0.632,1.334-0.849,2.05l-4.378,1.557C0.708,14.834,0.667,15.412,0.667,16s0.041,1.165,0.105,1.736l4.378,1.558c0.217,0.715,0.502,1.401,0.849,2.049l-1.994,4.193c0.725,0.909,1.549,1.733,2.459,2.458l4.192-1.993c0.648,0.347,1.334,0.633,2.05,0.851l1.557,4.377c0.571,0.064,1.148,0.104,1.737,0.104c0.588,0,1.165-0.04,1.736-0.104l1.558-4.377c0.715-0.218,1.399-0.504,2.049-0.851l4.193,1.993c0.909-0.725,1.733-1.549,2.458-2.458l-1.993-4.193c0.347-0.647,0.633-1.334,0.851-2.049L31.229,17.736zM16,20.871c-2.69,0-4.872-2.182-4.872-4.871c0-2.69,2.182-4.872,4.872-4.872c2.689,0,4.871,2.182,4.871,4.872C20.871,18.689,18.689,20.871,16,20.871z"></path><title>Link options.</title></g></g></g></g><!--z-index:56--><g   id="j_28" ><path  stroke="#707070" d="M 1737 3565 L 1362 3865" id="v-384" stroke-width="2" stroke-dasharray="30 30" fill="none" style="opacity: 1;"></path><path  fill="black" stroke="black" d="M 0 0 0 0" transform="matrix(-0.7808688416748546,0.6246950072646418,-0.6246950072646418,-0.7808688416748546,1736.5,3565)"></path><path  fill="#707070" stroke="#707070" d="M 20 0 L 0 10 L 20 20 z" id="v-386" transform="matrix(0.7808686753084834,-0.624695215222571,0.624695215222571,0.7808686753084834,1355.2530769150019,3857.191195086641)" style="opacity: 1;"></path><path  d="M 1737 3565 L 1362 3865" id="v-385" fill="none" style="cursor: auto; pointer-events: visiblepainted;"></path><g ><g id="v-375"  label-idx="0" cursor="move" transform="matrix(1,0,0,1,1549.5,3715)" style="cursor: default; opacity: 1;"><rect joint-selector="rect" id="v-379" fill="#ffffff" rx="3" ry="3" pointer-events="none" width="138.7130889892578" height="59.691917419433594" transform="matrix(1,0,0,1,-68.9,-29.8)"></rect><text joint-selector="text" id="v-378" font-size="24px" xml:space="preserve" y="0.8em" fill="#707070" text-anchor="middle" pointer-events="none" font-family="Open Sans" font-weight="normal" transform="matrix(1,0,0,1,0,-24.3)"><tspan dy="0" >triggers</tspan><tspan dy="1.2em" x="0" >notifications</tspan></text></g><g id="v-376"  label-idx="1" cursor="move" transform="matrix(1,0,0,1,1549.5,3755.800048828125)" style="cursor: default; opacity: 1;"><rect joint-selector="rect" id="v-381" fill="#ffffff" rx="3" ry="3" pointer-events="none" width="115.56941223144531" height="24.713534355163574" transform="matrix(1,0,0,1,-60.6,-12.3)"></rect><text joint-selector="text" id="v-380" font-size="17px" xml:space="preserve" y="0.8em" fill="#707070" text-anchor="middle" pointer-events="none" font-family="Open Sans" font-weight="normal" transform="matrix(1,0,0,1,0,-7.4)"><tspan dy="0" >[notifications]</tspan></text></g><g id="v-377"  label-idx="2" cursor="move" transform="matrix(1,0,0,1,1539.5,3764.199951171875)" style="cursor: default; opacity: 1;"><rect joint-selector="rect" id="v-383" fill="#ffffff" rx="3" ry="3"  width="0" height="0" transform="matrix(1,0,0,1,0,0)" display="none"></rect><text joint-selector="text" id="v-382" fill="#000000" font-size="14" text-anchor="middle" pointer-events="none"></text></g></g><g  display="none" style="display: none;"></g><g  id="v-388" display="none"><g  id="v-373"><path  end="source" d="M 26 0 L 0 13 L 26 26 z"></path></g><g  id="v-374"><path  end="target" d="M 26 0 L 0 13 L 26 26 z"></path></g></g><g  id="v-387" display="none"><g  id="v-372" transform="translate(1705.7652476222788, 3589.987801902177) "><g  event="remove"><circle r="11"></circle><path transform="scale(.8) translate(-16, -16)" d="M24.778,21.419 19.276,15.917 24.777,10.415 21.949,7.585 16.447,13.087 10.945,7.585 8.117,10.415 13.618,15.917 8.116,21.419 10.946,24.248 16.447,18.746 21.948,24.248z"></path><title>Remove link.</title></g><g  event="link:options"><circle r="11" transform="translate(25)"></circle><path fill="white" transform="scale(.55) translate(29, -16)" d="M31.229,17.736c0.064-0.571,0.104-1.148,0.104-1.736s-0.04-1.166-0.104-1.737l-4.377-1.557c-0.218-0.716-0.504-1.401-0.851-2.05l1.993-4.192c-0.725-0.91-1.549-1.734-2.458-2.459l-4.193,1.994c-0.647-0.347-1.334-0.632-2.049-0.849l-1.558-4.378C17.165,0.708,16.588,0.667,16,0.667s-1.166,0.041-1.737,0.105L12.707,5.15c-0.716,0.217-1.401,0.502-2.05,0.849L6.464,4.005C5.554,4.73,4.73,5.554,4.005,6.464l1.994,4.192c-0.347,0.648-0.632,1.334-0.849,2.05l-4.378,1.557C0.708,14.834,0.667,15.412,0.667,16s0.041,1.165,0.105,1.736l4.378,1.558c0.217,0.715,0.502,1.401,0.849,2.049l-1.994,4.193c0.725,0.909,1.549,1.733,2.459,2.458l4.192-1.993c0.648,0.347,1.334,0.633,2.05,0.851l1.557,4.377c0.571,0.064,1.148,0.104,1.737,0.104c0.588,0,1.165-0.04,1.736-0.104l1.558-4.377c0.715-0.218,1.399-0.504,2.049-0.851l4.193,1.993c0.909-0.725,1.733-1.549,2.458-2.458l-1.993-4.193c0.347-0.647,0.633-1.334,0.851-2.049L31.229,17.736zM16,20.871c-2.69,0-4.872-2.182-4.872-4.871c0-2.69,2.182-4.872,4.872-4.872c2.689,0,4.871,2.182,4.871,4.872C20.871,18.689,18.689,20.871,16,20.871z"></path><title>Link options.</title></g></g></g></g><!--z-index:57--><g   id="j_29" ><path  stroke="#707070" d="M 649 3626 L 971 3865" id="v-404" stroke-width="2" stroke-dasharray="30 30" fill="none" style="opacity: 1;"></path><path  fill="black" stroke="black" d="M 0 0 0 0" transform="matrix(0.8035858946486824,0.5951888019121973,-0.5951888019121973,0.8035858946486824,649,3626.14990234375)"></path><path  fill="#707070" stroke="#707070" d="M 20 0 L 0 10 L 20 20 z" id="v-406" transform="matrix(-0.8035858946486825,-0.5951888019121971,0.5951888019121971,-0.8035858946486825,965.5281237593961,3873.035842668734)" style="opacity: 1;"></path><path  d="M 649 3626 L 971 3865" id="v-405" fill="none" style="cursor: auto; pointer-events: visiblepainted;"></path><g ><g id="v-395"  label-idx="0" cursor="move" transform="matrix(1,0,0,1,810,3745.5)" style="cursor: default; opacity: 1;"><rect joint-selector="rect" id="v-399" fill="#ffffff" rx="3" ry="3" pointer-events="none" width="188.73927307128906" height="30.891918182373047" transform="matrix(1,0,0,1,-97,-15.4)"></rect><text joint-selector="text" id="v-398" font-size="24px" xml:space="preserve" y="0.8em" fill="#707070" text-anchor="middle" pointer-events="none" font-family="Open Sans" font-weight="normal" transform="matrix(1,0,0,1,0,-9.9)"><tspan dy="0" >sends messages</tspan></text></g><g id="v-396"  label-idx="1" cursor="move" transform="matrix(1,0,0,1,810,3771.89990234375)" style="cursor: default; opacity: 1;"><rect joint-selector="rect" id="v-401" fill="#ffffff" rx="3" ry="3" pointer-events="none" width="111.28858947753906" height="24.713534355163574" transform="matrix(1,0,0,1,-58.5,-12.3)"></rect><text joint-selector="text" id="v-400" font-size="17px" xml:space="preserve" y="0.8em" fill="#707070" text-anchor="middle" pointer-events="none" font-family="Open Sans" font-weight="normal" transform="matrix(1,0,0,1,0,-7.4)"><tspan dy="0" >[email | sms]</tspan></text></g><g id="v-397"  label-idx="2" cursor="move" transform="matrix(1,0,0,1,800,3780.300048828125)" style="cursor: default; opacity: 1;"><rect joint-selector="rect" id="v-403" fill="#ffffff" rx="3" ry="3"  width="0" height="0" transform="matrix(1,0,0,1,0,0)" display="none"></rect><text joint-selector="text" id="v-402" fill="#000000" font-size="14" text-anchor="middle" pointer-events="none"></text></g></g><g  display="none" style="display: none;"></g><g  id="v-408" display="none"><g  id="v-393"><path  end="source" d="M 26 0 L 0 13 L 26 26 z"></path></g><g  id="v-394"><path  end="target" d="M 26 0 L 0 13 L 26 26 z"></path></g></g><g  id="v-407" display="none"><g  id="v-392" transform="translate(681.1193012593016, 3649.8401024874943) "><g  event="remove"><circle r="11"></circle><path transform="scale(.8) translate(-16, -16)" d="M24.778,21.419 19.276,15.917 24.777,10.415 21.949,7.585 16.447,13.087 10.945,7.585 8.117,10.415 13.618,15.917 8.116,21.419 10.946,24.248 16.447,18.746 21.948,24.248z"></path><title>Remove link.</title></g><g  event="link:options"><circle r="11" transform="translate(25)"></circle><path fill="white" transform="scale(.55) translate(29, -16)" d="M31.229,17.736c0.064-0.571,0.104-1.148,0.104-1.736s-0.04-1.166-0.104-1.737l-4.377-1.557c-0.218-0.716-0.504-1.401-0.851-2.05l1.993-4.192c-0.725-0.91-1.549-1.734-2.458-2.459l-4.193,1.994c-0.647-0.347-1.334-0.632-2.049-0.849l-1.558-4.378C17.165,0.708,16.588,0.667,16,0.667s-1.166,0.041-1.737,0.105L12.707,5.15c-0.716,0.217-1.401,0.502-2.05,0.849L6.464,4.005C5.554,4.73,4.73,5.554,4.005,6.464l1.994,4.192c-0.347,0.648-0.632,1.334-0.849,2.05l-4.378,1.557C0.708,14.834,0.667,15.412,0.667,16s0.041,1.165,0.105,1.736l4.378,1.558c0.217,0.715,0.502,1.401,0.849,2.049l-1.994,4.193c0.725,0.909,1.549,1.733,2.459,2.458l4.192-1.993c0.648,0.347,1.334,0.633,2.05,0.851l1.557,4.377c0.571,0.064,1.148,0.104,1.737,0.104c0.588,0,1.165-0.04,1.736-0.104l1.558-4.377c0.715-0.218,1.399-0.504,2.049-0.851l4.193,1.993c0.909-0.725,1.733-1.549,2.458-2.458l-1.993-4.193c0.347-0.647,0.633-1.334,0.851-2.049L31.229,17.736zM16,20.871c-2.69,0-4.872-2.182-4.872-4.871c0-2.69,2.182-4.872,4.872-4.872c2.689,0,4.871,2.182,4.871,4.872C20.871,18.689,18.689,20.871,16,20.871z"></path><title>Link options.</title></g></g></g></g><!--z-index:58--></g><g ></g><g ></g><g ></g></g></svg>