<svg xmlns="http://www.w3.org/2000/svg" xmlns:xlink="http://www.w3.org/1999/xlink" version="1.1" viewBox="0 0 3100 2089" style="background: #ffffff"><defs><style>@import url(https://fonts.googleapis.com/css?family=Open+Sans:400,700);</style></defs><defs joint-selector="defs"></defs><g joint-selector="layers"  transform="matrix(1,0,0,1,0,0)"><g ></g><g ><!--z-index:1--><!--z-index:2--><!--z-index:3--><!--z-index:4--><!--z-index:5--><!--z-index:6--><!--z-index:7--><!--z-index:8--><!--z-index:9--><!--z-index:10--><!--z-index:11--><!--z-index:12--><!--z-index:13--><!--z-index:14--><!--z-index:15--><!--z-index:16--><!--z-index:17--><g   id="j_2"  transform="translate(20,2052.6)"><g id="v-5"><text  id="v-6" font-size="22px" xml:space="preserve" y="0.8em" font-weight="normal" text-anchor="start" fill="#aaaaaa" pointer-events="none" display="block" font-family="Open Sans"><tspan dy="0"  display="block">Saturday, July 12, 2025 at 9:31 AM West Africa Standard Time</tspan></text></g></g><!--z-index:18--><g   id="j_1"  transform="translate(20,2009.3999999999999)"><g id="v-3"><text  id="v-4" font-size="36px" xml:space="preserve" y="0.8em" font-weight="normal" text-anchor="start" fill="#000000" pointer-events="none" display="block" font-family="Open Sans"><tspan dy="0"  display="block">[System Context] platform</tspan></text></g></g><!--z-index:19--><g   id="j_3"  transform="translate(650,165)" style=""><g  id="v-7" style="opacity: 1;"><rect  x="0" y="160" width="400" height="240" rx="70" id="v-9" stroke="#283848" stroke-width="2" pointer-events="visiblePainted" fill="#2c3e50" style="fill: rgb(44, 62, 80); stroke: rgb(40, 56, 72);"></rect><circle  cx="200" cy="88.88888888888889" r="88.88888888888889" id="v-8" stroke="#283848" stroke-width="2" pointer-events="visiblePainted" fill="#2c3e50" style="fill: rgb(44, 62, 80); stroke: rgb(40, 56, 72);"></circle><line  x1="80" y1="266.6666666666667" x2="80" y2="400" id="v-15" stroke="#283848" stroke-width="2" style="stroke: rgb(40, 56, 72);"></line><line  x1="320" y1="266.6666666666667" x2="320" y2="400" id="v-16" stroke="#283848" stroke-width="2" style="stroke: rgb(40, 56, 72);"></line><text  id="v-10" font-size="32" xml:space="preserve" y="0.8em" font-weight="bold" text-anchor="middle" pointer-events="visible" font-family="Open Sans" fill="#ffffff" transform="matrix(1,0,0,1,200,254.3)" style="fill: rgb(255, 255, 255);"><tspan dy="0" >platform admin</tspan></text><text  id="v-11" font-size="15" xml:space="preserve" y="0.8em" text-anchor="middle" font-family="Open Sans" fill="#ffffff" transform="matrix(1,0,0,1,200,292.7)" style="fill: rgb(255, 255, 255);"><tspan dy="0" >[Software System]</tspan></text><text  id="v-12" font-size="22" xml:space="preserve" display="none" y="0.8em" text-anchor="middle" font-family="Open Sans" fill="#ffffff" transform="matrix(1,0,0,1,200,310.7)" style="fill: rgb(255, 255, 255);"><tspan dy="0" style="fill-opacity: 0; stroke-opacity: 0;" >-</tspan></text><g  id="v-13" font-weight="normal" text-anchor="middle" color="#ffffff" transform="matrix(1,0,0,1,197.5,368)" display="none" style="fill: rgb(255, 255, 255);"><g ></g><g ></g><g ></g><g ></g></g><image  id="v-14"></image></g></g><!--z-index:20--><g   id="j_4"  transform="translate(1350,165)" style=""><g  id="v-17" style="opacity: 1;"><rect  x="0" y="160" width="400" height="240" rx="70" id="v-19" stroke="#283848" stroke-width="2" pointer-events="visiblePainted" fill="#2c3e50" style="fill: rgb(44, 62, 80); stroke: rgb(40, 56, 72);"></rect><circle  cx="200" cy="88.88888888888889" r="88.88888888888889" id="v-18" stroke="#283848" stroke-width="2" pointer-events="visiblePainted" fill="#2c3e50" style="fill: rgb(44, 62, 80); stroke: rgb(40, 56, 72);"></circle><line  x1="80" y1="266.6666666666667" x2="80" y2="400" id="v-25" stroke="#283848" stroke-width="2" style="stroke: rgb(40, 56, 72);"></line><line  x1="320" y1="266.6666666666667" x2="320" y2="400" id="v-26" stroke="#283848" stroke-width="2" style="stroke: rgb(40, 56, 72);"></line><text  id="v-20" font-size="32" xml:space="preserve" y="0.8em" font-weight="bold" text-anchor="middle" pointer-events="visible" font-family="Open Sans" fill="#ffffff" transform="matrix(1,0,0,1,200,254.3)" style="fill: rgb(255, 255, 255);"><tspan dy="0" >tenant admin</tspan></text><text  id="v-21" font-size="15" xml:space="preserve" y="0.8em" text-anchor="middle" font-family="Open Sans" fill="#ffffff" transform="matrix(1,0,0,1,200,292.7)" style="fill: rgb(255, 255, 255);"><tspan dy="0" >[Software System]</tspan></text><text  id="v-22" font-size="22" xml:space="preserve" display="none" y="0.8em" text-anchor="middle" font-family="Open Sans" fill="#ffffff" transform="matrix(1,0,0,1,200,310.7)" style="fill: rgb(255, 255, 255);"><tspan dy="0" style="fill-opacity: 0; stroke-opacity: 0;" >-</tspan></text><g  id="v-23" font-weight="normal" text-anchor="middle" color="#ffffff" transform="matrix(1,0,0,1,197.5,368)" display="none" style="fill: rgb(255, 255, 255);"><g ></g><g ></g><g ></g><g ></g></g><image  id="v-24"></image></g></g><!--z-index:21--><g   id="j_5"  transform="translate(2050,165)" style=""><g  id="v-27" style="opacity: 1;"><rect  x="0" y="160" width="400" height="240" rx="70" id="v-29" stroke="#283848" stroke-width="2" pointer-events="visiblePainted" fill="#2c3e50" style="fill: rgb(44, 62, 80); stroke: rgb(40, 56, 72);"></rect><circle  cx="200" cy="88.88888888888889" r="88.88888888888889" id="v-28" stroke="#283848" stroke-width="2" pointer-events="visiblePainted" fill="#2c3e50" style="fill: rgb(44, 62, 80); stroke: rgb(40, 56, 72);"></circle><line  x1="80" y1="266.6666666666667" x2="80" y2="400" id="v-35" stroke="#283848" stroke-width="2" style="stroke: rgb(40, 56, 72);"></line><line  x1="320" y1="266.6666666666667" x2="320" y2="400" id="v-36" stroke="#283848" stroke-width="2" style="stroke: rgb(40, 56, 72);"></line><text  id="v-30" font-size="32" xml:space="preserve" y="0.8em" font-weight="bold" text-anchor="middle" pointer-events="visible" font-family="Open Sans" fill="#ffffff" transform="matrix(1,0,0,1,200,254.3)" style="fill: rgb(255, 255, 255);"><tspan dy="0" >website owner</tspan></text><text  id="v-31" font-size="15" xml:space="preserve" y="0.8em" text-anchor="middle" font-family="Open Sans" fill="#ffffff" transform="matrix(1,0,0,1,200,292.7)" style="fill: rgb(255, 255, 255);"><tspan dy="0" >[Software System]</tspan></text><text  id="v-32" font-size="22" xml:space="preserve" display="none" y="0.8em" text-anchor="middle" font-family="Open Sans" fill="#ffffff" transform="matrix(1,0,0,1,200,310.7)" style="fill: rgb(255, 255, 255);"><tspan dy="0" style="fill-opacity: 0; stroke-opacity: 0;" >-</tspan></text><g  id="v-33" font-weight="normal" text-anchor="middle" color="#ffffff" transform="matrix(1,0,0,1,197.5,368)" display="none" style="fill: rgb(255, 255, 255);"><g ></g><g ></g><g ></g><g ></g></g><image  id="v-34"></image></g></g><!--z-index:22--><g   id="j_6"  transform="translate(1325,865)" style=""><g  id="v-37" style="opacity: 1;"><rect  id="v-38" rx="10" ry="10" stroke="#0773af" stroke-width="7" pointer-events="visiblePainted" fill="#e6f2ff" x="10" y="0" width="150" height="75" style="fill: rgb(230, 242, 255); stroke: rgb(7, 115, 175);"></rect><rect  id="v-39" rx="5" ry="5" stroke="#0773af" stroke-width="7" pointer-events="visiblePainted" fill="#e6f2ff" x="0" y="37.5" width="450" height="262.5" style="fill: rgb(230, 242, 255); stroke: rgb(7, 115, 175);"></rect><text  id="v-40" font-size="34" xml:space="preserve" y="0.8em" font-weight="bold" text-anchor="middle" pointer-events="visible" font-family="Open Sans" fill="#0773af" transform="matrix(1,0,0,1,225,140.7)" style="fill: rgb(7, 115, 175);"><tspan dy="0" >platform</tspan></text><text  id="v-41" font-size="17" xml:space="preserve" y="0.8em" text-anchor="middle" font-family="Open Sans" fill="#0773af" transform="matrix(1,0,0,1,225,181.5)" style="fill: rgb(7, 115, 175);"><tspan dy="0" >[Software System]</tspan></text><text  id="v-42" font-size="24" xml:space="preserve" display="none" y="0.8em" text-anchor="middle" font-family="Open Sans" fill="#0773af" transform="matrix(1,0,0,1,225,201.9)" style="fill: rgb(7, 115, 175);"><tspan dy="0" style="fill-opacity: 0; stroke-opacity: 0;" >-</tspan></text><g  id="v-43" font-weight="normal" text-anchor="middle" color="#0773af" transform="matrix(1,0,0,1,222.5,268)" display="none" style="fill: rgb(7, 115, 175);"><g ></g><g ></g><g ></g><g ></g></g><image  id="v-44"></image></g></g><!--z-index:23--><g   id="j_7"  transform="translate(200,1465)" style=""><g  id="v-48" style="opacity: 1;"><polygon  id="v-49" stroke="#ff8c00" stroke-width="7" pointer-events="visiblePainted" fill="#fff2e6" points="112.5,0 337.5,0 450,194.5 337.5,389 112.5,389 0,194.5" style="fill: rgb(255, 242, 230); stroke: rgb(255, 140, 0);"></polygon><text  id="v-50" font-size="34" xml:space="preserve" y="0.8em" font-weight="bold" text-anchor="middle" pointer-events="visible" font-family="Open Sans" fill="#111111" transform="matrix(1,0,0,1,225,166.4)" style="fill: rgb(17, 17, 17);"><tspan dy="0" >identity provider</tspan></text><text  id="v-51" font-size="17" xml:space="preserve" y="0.8em" text-anchor="middle" font-family="Open Sans" fill="#111111" transform="matrix(1,0,0,1,225,207.2)" style="fill: rgb(17, 17, 17);"><tspan dy="0" >[Software System]</tspan></text><text  id="v-52" font-size="24" xml:space="preserve" display="none" y="0.8em" text-anchor="middle" font-family="Open Sans" fill="#111111" transform="matrix(1,0,0,1,225,227.6)" style="fill: rgb(17, 17, 17);"><tspan dy="0" style="fill-opacity: 0; stroke-opacity: 0;" >-</tspan></text><g  id="v-53" font-weight="normal" text-anchor="middle" color="#111111" transform="matrix(1,0,0,1,222.1,357)" display="none" style="fill: rgb(17, 17, 17);"><g ></g><g ></g><g ></g><g ></g></g><image  id="v-54"></image></g></g><!--z-index:24--><g   id="j_8"  transform="translate(950,1465)" style=""><g  id="v-58" style="opacity: 1;"><polygon  id="v-59" stroke="#ff8c00" stroke-width="7" pointer-events="visiblePainted" fill="#fff2e6" points="112.5,0 337.5,0 450,194.5 337.5,389 112.5,389 0,194.5" style="fill: rgb(255, 242, 230); stroke: rgb(255, 140, 0);"></polygon><text  id="v-60" font-size="34" xml:space="preserve" y="0.8em" font-weight="bold" text-anchor="middle" pointer-events="visible" font-family="Open Sans" fill="#111111" transform="matrix(1,0,0,1,225,166.4)" style="fill: rgb(17, 17, 17);"><tspan dy="0" >payment gateway</tspan></text><text  id="v-61" font-size="17" xml:space="preserve" y="0.8em" text-anchor="middle" font-family="Open Sans" fill="#111111" transform="matrix(1,0,0,1,225,207.2)" style="fill: rgb(17, 17, 17);"><tspan dy="0" >[Software System]</tspan></text><text  id="v-62" font-size="24" xml:space="preserve" display="none" y="0.8em" text-anchor="middle" font-family="Open Sans" fill="#111111" transform="matrix(1,0,0,1,225,227.6)" style="fill: rgb(17, 17, 17);"><tspan dy="0" style="fill-opacity: 0; stroke-opacity: 0;" >-</tspan></text><g  id="v-63" font-weight="normal" text-anchor="middle" color="#111111" transform="matrix(1,0,0,1,222.1,357)" display="none" style="fill: rgb(17, 17, 17);"><g ></g><g ></g><g ></g><g ></g></g><image  id="v-64"></image></g></g><!--z-index:25--><g   id="j_9"  transform="translate(1700,1465)" style=""><g  id="v-68" style="opacity: 1;"><polygon  id="v-69" stroke="#ff8c00" stroke-width="7" pointer-events="visiblePainted" fill="#fff2e6" points="112.5,0 337.5,0 450,194.5 337.5,389 112.5,389 0,194.5" style="fill: rgb(255, 242, 230); stroke: rgb(255, 140, 0);"></polygon><text  id="v-70" font-size="34" xml:space="preserve" y="0.8em" font-weight="bold" text-anchor="middle" pointer-events="visible" font-family="Open Sans" fill="#111111" transform="matrix(1,0,0,1,225,166.4)" style="fill: rgb(17, 17, 17);"><tspan dy="0" >email &amp; sms provider</tspan></text><text  id="v-71" font-size="17" xml:space="preserve" y="0.8em" text-anchor="middle" font-family="Open Sans" fill="#111111" transform="matrix(1,0,0,1,225,207.2)" style="fill: rgb(17, 17, 17);"><tspan dy="0" >[Software System]</tspan></text><text  id="v-72" font-size="24" xml:space="preserve" display="none" y="0.8em" text-anchor="middle" font-family="Open Sans" fill="#111111" transform="matrix(1,0,0,1,225,227.6)" style="fill: rgb(17, 17, 17);"><tspan dy="0" style="fill-opacity: 0; stroke-opacity: 0;" >-</tspan></text><g  id="v-73" font-weight="normal" text-anchor="middle" color="#111111" transform="matrix(1,0,0,1,222.1,357)" display="none" style="fill: rgb(17, 17, 17);"><g ></g><g ></g><g ></g><g ></g></g><image  id="v-74"></image></g></g><!--z-index:26--><g   id="j_10"  transform="translate(2450,1465)" style=""><g  id="v-75" style="opacity: 1;"><polygon  id="v-76" stroke="#ff8c00" stroke-width="7" pointer-events="visiblePainted" fill="#fff2e6" points="112.5,0 337.5,0 450,194.5 337.5,389 112.5,389 0,194.5" style="fill: rgb(255, 242, 230); stroke: rgb(255, 140, 0);"></polygon><text  id="v-77" font-size="34" xml:space="preserve" y="0.8em" font-weight="bold" text-anchor="middle" pointer-events="visible" font-family="Open Sans" fill="#111111" transform="matrix(1,0,0,1,225,166.4)" style="fill: rgb(17, 17, 17);"><tspan dy="0" >cdn &amp; hosting</tspan></text><text  id="v-78" font-size="17" xml:space="preserve" y="0.8em" text-anchor="middle" font-family="Open Sans" fill="#111111" transform="matrix(1,0,0,1,225,207.2)" style="fill: rgb(17, 17, 17);"><tspan dy="0" >[Software System]</tspan></text><text  id="v-79" font-size="24" xml:space="preserve" display="none" y="0.8em" text-anchor="middle" font-family="Open Sans" fill="#111111" transform="matrix(1,0,0,1,225,227.6)" style="fill: rgb(17, 17, 17);"><tspan dy="0" style="fill-opacity: 0; stroke-opacity: 0;" >-</tspan></text><g  id="v-80" font-weight="normal" text-anchor="middle" color="#111111" transform="matrix(1,0,0,1,222.1,357)" display="none" style="fill: rgb(17, 17, 17);"><g ></g><g ></g><g ></g><g ></g></g><image  id="v-81"></image></g></g><!--z-index:27--><g   id="j_11" ><path  stroke="#707070" d="M 1550 565 L 1550 865" id="v-94" stroke-width="2" stroke-dasharray="30 30" fill="none" style="opacity: 1;"></path><path  fill="black" stroke="black" d="M 0 0 0 0" transform="matrix(6.123233995736766e-17,1,-1,6.123233995736766e-17,1550,565)"></path><path  fill="#707070" stroke="#707070" d="M 20 0 L 0 10 L 20 20 z" id="v-96" transform="matrix(-1.8369701987210297e-16,-1,1,-1.8369701987210297e-16,1540,865)" style="opacity: 1;"></path><path  d="M 1550 565 L 1550 865" id="v-95" fill="none" style="cursor: auto; pointer-events: visiblepainted;"></path><g ><g id="v-88"  label-idx="0" cursor="move" transform="matrix(1,0,0,1,1550,715)" style="cursor: default; opacity: 1;"><rect joint-selector="rect" id="v-91" fill="#ffffff" rx="3" ry="3" pointer-events="none" width="183.69491577148438" height="31.026233673095703" transform="matrix(1,0,0,1,-90.5,-15.5)"></rect><text joint-selector="text" id="v-90" font-size="24px" xml:space="preserve" y="0.8em" fill="#707070" text-anchor="middle" pointer-events="none" font-family="Open Sans" font-weight="normal" transform="matrix(1,0,0,1,0,-9.3)"><tspan dy="0" >manages tenant</tspan></text></g><g id="v-89"  label-idx="1" cursor="move" transform="matrix(1,0,0,1,1540,741.4000244140625)" style="cursor: default; opacity: 1;"><rect joint-selector="rect" id="v-93" fill="#ffffff" rx="3" ry="3"  width="0" height="0" transform="matrix(1,0,0,1,0,0)" display="none"></rect><text joint-selector="text" id="v-92" fill="#000000" font-size="14" text-anchor="middle" pointer-events="none"></text></g></g><g  display="none" style="display: none;"></g><g  id="v-98" display="none"><g  id="v-86"><path  end="source" d="M 26 0 L 0 13 L 26 26 z"></path></g><g  id="v-87"><path  end="target" d="M 26 0 L 0 13 L 26 26 z"></path></g></g><g  id="v-97" display="none"><g  id="v-85" transform="translate(1550.0000000000002, 605) "><g  event="remove"><circle r="11"></circle><path transform="scale(.8) translate(-16, -16)" d="M24.778,21.419 19.276,15.917 24.777,10.415 21.949,7.585 16.447,13.087 10.945,7.585 8.117,10.415 13.618,15.917 8.116,21.419 10.946,24.248 16.447,18.746 21.948,24.248z"></path><title>Remove link.</title></g><g  event="link:options"><circle r="11" transform="translate(25)"></circle><path fill="white" transform="scale(.55) translate(29, -16)" d="M31.229,17.736c0.064-0.571,0.104-1.148,0.104-1.736s-0.04-1.166-0.104-1.737l-4.377-1.557c-0.218-0.716-0.504-1.401-0.851-2.05l1.993-4.192c-0.725-0.91-1.549-1.734-2.458-2.459l-4.193,1.994c-0.647-0.347-1.334-0.632-2.049-0.849l-1.558-4.378C17.165,0.708,16.588,0.667,16,0.667s-1.166,0.041-1.737,0.105L12.707,5.15c-0.716,0.217-1.401,0.502-2.05,0.849L6.464,4.005C5.554,4.73,4.73,5.554,4.005,6.464l1.994,4.192c-0.347,0.648-0.632,1.334-0.849,2.05l-4.378,1.557C0.708,14.834,0.667,15.412,0.667,16s0.041,1.165,0.105,1.736l4.378,1.558c0.217,0.715,0.502,1.401,0.849,2.049l-1.994,4.193c0.725,0.909,1.549,1.733,2.459,2.458l4.192-1.993c0.648,0.347,1.334,0.633,2.05,0.851l1.557,4.377c0.571,0.064,1.148,0.104,1.737,0.104c0.588,0,1.165-0.04,1.736-0.104l1.558-4.377c0.715-0.218,1.399-0.504,2.049-0.851l4.193,1.993c0.909-0.725,1.733-1.549,2.458-2.458l-1.993-4.193c0.347-0.647,0.633-1.334,0.851-2.049L31.229,17.736zM16,20.871c-2.69,0-4.872-2.182-4.872-4.871c0-2.69,2.182-4.872,4.872-4.872c2.689,0,4.871,2.182,4.871,4.872C20.871,18.689,18.689,20.871,16,20.871z"></path><title>Link options.</title></g></g></g></g><!--z-index:28--><g   id="j_12" ><path  stroke="#707070" d="M 2050 551 L 1712 865" id="v-111" stroke-width="2" stroke-dasharray="30 30" fill="none" style="opacity: 1;"></path><path  fill="black" stroke="black" d="M 0 0 0 0" transform="matrix(-0.7327872988508723,0.6804577684491833,-0.6804577684491833,-0.7327872988508723,2050,550.7100219726562)"></path><path  fill="#707070" stroke="#707070" d="M 20 0 L 0 10 L 20 20 z" id="v-113" transform="matrix(0.7327872988508726,-0.680457768449183,0.680457768449183,0.7327872988508726,1704.7354692488746,857.6721392662956)" style="opacity: 1;"></path><path  d="M 2050 551 L 1712 865" id="v-112" fill="none" style="cursor: auto; pointer-events: visiblepainted;"></path><g ><g id="v-105"  label-idx="0" cursor="move" transform="matrix(1,0,0,1,1881,708)" style="cursor: default; opacity: 1;"><rect joint-selector="rect" id="v-108" fill="#ffffff" rx="3" ry="3" pointer-events="none" width="174.0949249267578" height="31.026233673095703" transform="matrix(1,0,0,1,-85.7,-15.5)"></rect><text joint-selector="text" id="v-107" font-size="24px" xml:space="preserve" y="0.8em" fill="#707070" text-anchor="middle" pointer-events="none" font-family="Open Sans" font-weight="normal" transform="matrix(1,0,0,1,0,-9.3)"><tspan dy="0" >builds websites</tspan></text></g><g id="v-106"  label-idx="1" cursor="move" transform="matrix(1,0,0,1,1871,734.4000244140625)" style="cursor: default; opacity: 1;"><rect joint-selector="rect" id="v-110" fill="#ffffff" rx="3" ry="3"  width="0" height="0" transform="matrix(1,0,0,1,0,0)" display="none"></rect><text joint-selector="text" id="v-109" fill="#000000" font-size="14" text-anchor="middle" pointer-events="none"></text></g></g><g  display="none" style="display: none;"></g><g  id="v-115" display="none"><g  id="v-103"><path  end="source" d="M 26 0 L 0 13 L 26 26 z"></path></g><g  id="v-104"><path  end="target" d="M 26 0 L 0 13 L 26 26 z"></path></g></g><g  id="v-114" display="none"><g  id="v-102" transform="translate(2020.694437182886, 578.2246944514018) "><g  event="remove"><circle r="11"></circle><path transform="scale(.8) translate(-16, -16)" d="M24.778,21.419 19.276,15.917 24.777,10.415 21.949,7.585 16.447,13.087 10.945,7.585 8.117,10.415 13.618,15.917 8.116,21.419 10.946,24.248 16.447,18.746 21.948,24.248z"></path><title>Remove link.</title></g><g  event="link:options"><circle r="11" transform="translate(25)"></circle><path fill="white" transform="scale(.55) translate(29, -16)" d="M31.229,17.736c0.064-0.571,0.104-1.148,0.104-1.736s-0.04-1.166-0.104-1.737l-4.377-1.557c-0.218-0.716-0.504-1.401-0.851-2.05l1.993-4.192c-0.725-0.91-1.549-1.734-2.458-2.459l-4.193,1.994c-0.647-0.347-1.334-0.632-2.049-0.849l-1.558-4.378C17.165,0.708,16.588,0.667,16,0.667s-1.166,0.041-1.737,0.105L12.707,5.15c-0.716,0.217-1.401,0.502-2.05,0.849L6.464,4.005C5.554,4.73,4.73,5.554,4.005,6.464l1.994,4.192c-0.347,0.648-0.632,1.334-0.849,2.05l-4.378,1.557C0.708,14.834,0.667,15.412,0.667,16s0.041,1.165,0.105,1.736l4.378,1.558c0.217,0.715,0.502,1.401,0.849,2.049l-1.994,4.193c0.725,0.909,1.549,1.733,2.459,2.458l4.192-1.993c0.648,0.347,1.334,0.633,2.05,0.851l1.557,4.377c0.571,0.064,1.148,0.104,1.737,0.104c0.588,0,1.165-0.04,1.736-0.104l1.558-4.377c0.715-0.218,1.399-0.504,2.049-0.851l4.193,1.993c0.909-0.725,1.733-1.549,2.458-2.458l-1.993-4.193c0.347-0.647,0.633-1.334,0.851-2.049L31.229,17.736zM16,20.871c-2.69,0-4.872-2.182-4.872-4.871c0-2.69,2.182-4.872,4.872-4.872c2.689,0,4.871,2.182,4.871,4.872C20.871,18.689,18.689,20.871,16,20.871z"></path><title>Link options.</title></g></g></g></g><!--z-index:29--><g   id="j_13" ><path  stroke="#707070" d="M 1325 1144 L 650 1531" id="v-128" stroke-width="2" stroke-dasharray="30 30" fill="none" style="opacity: 1;"></path><path  fill="black" stroke="black" d="M 0 0 0 0" transform="matrix(-0.8676967278262774,0.49709394335434337,-0.49709394335434337,-0.8676967278262774,1325,1143.9000244140625)"></path><path  fill="#707070" stroke="#707070" d="M 20 0 L 0 10 L 20 20 z" id="v-130" transform="matrix(0.8676967278262775,-0.4970939433543431,0.4970939433543431,0.8676967278262775,645.0290342061626,1521.9230004755932)" style="opacity: 1;"></path><path  d="M 1325 1144 L 650 1531" id="v-129" fill="none" style="cursor: auto; pointer-events: visiblepainted;"></path><g ><g id="v-122"  label-idx="0" cursor="move" transform="matrix(1,0,0,1,987.5,1337.5)" style="cursor: default; opacity: 1;"><rect joint-selector="rect" id="v-125" fill="#ffffff" rx="3" ry="3" pointer-events="none" width="154.9548797607422" height="59.82623291015625" transform="matrix(1,0,0,1,-76.2,-29.9)"></rect><text joint-selector="text" id="v-124" font-size="24px" xml:space="preserve" y="0.8em" fill="#707070" text-anchor="middle" pointer-events="none" font-family="Open Sans" font-weight="normal" transform="matrix(1,0,0,1,0,-23.7)"><tspan dy="0" >authenticates</tspan><tspan dy="1.2em" x="0" >users</tspan></text></g><g id="v-123"  label-idx="1" cursor="move" transform="matrix(1,0,0,1,977.5,1378.300048828125)" style="cursor: default; opacity: 1;"><rect joint-selector="rect" id="v-127" fill="#ffffff" rx="3" ry="3"  width="0" height="0" transform="matrix(1,0,0,1,0,0)" display="none"></rect><text joint-selector="text" id="v-126" fill="#000000" font-size="14" text-anchor="middle" pointer-events="none"></text></g></g><g  display="none" style="display: none;"></g><g  id="v-132" display="none"><g  id="v-120"><path  end="source" d="M 26 0 L 0 13 L 26 26 z"></path></g><g  id="v-121"><path  end="target" d="M 26 0 L 0 13 L 26 26 z"></path></g></g><g  id="v-131" display="none"><g  id="v-119" transform="translate(1290.2987828527414, 1163.8953644977616) "><g  event="remove"><circle r="11"></circle><path transform="scale(.8) translate(-16, -16)" d="M24.778,21.419 19.276,15.917 24.777,10.415 21.949,7.585 16.447,13.087 10.945,7.585 8.117,10.415 13.618,15.917 8.116,21.419 10.946,24.248 16.447,18.746 21.948,24.248z"></path><title>Remove link.</title></g><g  event="link:options"><circle r="11" transform="translate(25)"></circle><path fill="white" transform="scale(.55) translate(29, -16)" d="M31.229,17.736c0.064-0.571,0.104-1.148,0.104-1.736s-0.04-1.166-0.104-1.737l-4.377-1.557c-0.218-0.716-0.504-1.401-0.851-2.05l1.993-4.192c-0.725-0.91-1.549-1.734-2.458-2.459l-4.193,1.994c-0.647-0.347-1.334-0.632-2.049-0.849l-1.558-4.378C17.165,0.708,16.588,0.667,16,0.667s-1.166,0.041-1.737,0.105L12.707,5.15c-0.716,0.217-1.401,0.502-2.05,0.849L6.464,4.005C5.554,4.73,4.73,5.554,4.005,6.464l1.994,4.192c-0.347,0.648-0.632,1.334-0.849,2.05l-4.378,1.557C0.708,14.834,0.667,15.412,0.667,16s0.041,1.165,0.105,1.736l4.378,1.558c0.217,0.715,0.502,1.401,0.849,2.049l-1.994,4.193c0.725,0.909,1.549,1.733,2.459,2.458l4.192-1.993c0.648,0.347,1.334,0.633,2.05,0.851l1.557,4.377c0.571,0.064,1.148,0.104,1.737,0.104c0.588,0,1.165-0.04,1.736-0.104l1.558-4.377c0.715-0.218,1.399-0.504,2.049-0.851l4.193,1.993c0.909-0.725,1.733-1.549,2.458-2.458l-1.993-4.193c0.347-0.647,0.633-1.334,0.851-2.049L31.229,17.736zM16,20.871c-2.69,0-4.872-2.182-4.872-4.871c0-2.69,2.182-4.872,4.872-4.872c2.689,0,4.871,2.182,4.871,4.872C20.871,18.689,18.689,20.871,16,20.871z"></path><title>Link options.</title></g></g></g></g><!--z-index:30--><g   id="j_14" ><path  stroke="#707070" d="M 1463 1165 L 1288 1465" id="v-145" stroke-width="2" stroke-dasharray="30 30" fill="none" style="opacity: 1;"></path><path  fill="black" stroke="black" d="M 0 0 0 0" transform="matrix(-0.5029033147585213,0.8643426727894971,-0.8643426727894971,-0.5029033147585213,1462.719970703125,1165)"></path><path  fill="#707070" stroke="#707070" d="M 20 0 L 0 10 L 20 20 z" id="v-147" transform="matrix(0.5029031996643282,-0.8643427397551164,0.8643427397551164,0.5029031996643282,1279.5265152151806,1459.9709627837203)" style="opacity: 1;"></path><path  d="M 1463 1165 L 1288 1465" id="v-146" fill="none" style="cursor: auto; pointer-events: visiblepainted;"></path><g ><g id="v-139"  label-idx="0" cursor="move" transform="matrix(1,0,0,1,1375.5,1315)" style="cursor: default; opacity: 1;"><rect joint-selector="rect" id="v-142" fill="#ffffff" rx="3" ry="3" pointer-events="none" width="114.25154113769531" height="59.82623291015625" transform="matrix(1,0,0,1,-55.8,-29.9)"></rect><text joint-selector="text" id="v-141" font-size="24px" xml:space="preserve" y="0.8em" fill="#707070" text-anchor="middle" pointer-events="none" font-family="Open Sans" font-weight="normal" transform="matrix(1,0,0,1,0,-23.7)"><tspan dy="0" >processes</tspan><tspan dy="1.2em" x="0" >payments</tspan></text></g><g id="v-140"  label-idx="1" cursor="move" transform="matrix(1,0,0,1,1365.5,1355.800048828125)" style="cursor: default; opacity: 1;"><rect joint-selector="rect" id="v-144" fill="#ffffff" rx="3" ry="3"  width="0" height="0" transform="matrix(1,0,0,1,0,0)" display="none"></rect><text joint-selector="text" id="v-143" fill="#000000" font-size="14" text-anchor="middle" pointer-events="none"></text></g></g><g  display="none" style="display: none;"></g><g  id="v-149" display="none"><g  id="v-137"><path  end="source" d="M 26 0 L 0 13 L 26 26 z"></path></g><g  id="v-138"><path  end="target" d="M 26 0 L 0 13 L 26 26 z"></path></g></g><g  id="v-148" display="none"><g  id="v-136" transform="translate(1442.8451589790366, 1199.5511560359373) "><g  event="remove"><circle r="11"></circle><path transform="scale(.8) translate(-16, -16)" d="M24.778,21.419 19.276,15.917 24.777,10.415 21.949,7.585 16.447,13.087 10.945,7.585 8.117,10.415 13.618,15.917 8.116,21.419 10.946,24.248 16.447,18.746 21.948,24.248z"></path><title>Remove link.</title></g><g  event="link:options"><circle r="11" transform="translate(25)"></circle><path fill="white" transform="scale(.55) translate(29, -16)" d="M31.229,17.736c0.064-0.571,0.104-1.148,0.104-1.736s-0.04-1.166-0.104-1.737l-4.377-1.557c-0.218-0.716-0.504-1.401-0.851-2.05l1.993-4.192c-0.725-0.91-1.549-1.734-2.458-2.459l-4.193,1.994c-0.647-0.347-1.334-0.632-2.049-0.849l-1.558-4.378C17.165,0.708,16.588,0.667,16,0.667s-1.166,0.041-1.737,0.105L12.707,5.15c-0.716,0.217-1.401,0.502-2.05,0.849L6.464,4.005C5.554,4.73,4.73,5.554,4.005,6.464l1.994,4.192c-0.347,0.648-0.632,1.334-0.849,2.05l-4.378,1.557C0.708,14.834,0.667,15.412,0.667,16s0.041,1.165,0.105,1.736l4.378,1.558c0.217,0.715,0.502,1.401,0.849,2.049l-1.994,4.193c0.725,0.909,1.549,1.733,2.459,2.458l4.192-1.993c0.648,0.347,1.334,0.633,2.05,0.851l1.557,4.377c0.571,0.064,1.148,0.104,1.737,0.104c0.588,0,1.165-0.04,1.736-0.104l1.558-4.377c0.715-0.218,1.399-0.504,2.049-0.851l4.193,1.993c0.909-0.725,1.733-1.549,2.458-2.458l-1.993-4.193c0.347-0.647,0.633-1.334,0.851-2.049L31.229,17.736zM16,20.871c-2.69,0-4.872-2.182-4.872-4.871c0-2.69,2.182-4.872,4.872-4.872c2.689,0,4.871,2.182,4.871,4.872C20.871,18.689,18.689,20.871,16,20.871z"></path><title>Link options.</title></g></g></g></g><!--z-index:31--><g   id="j_15" ><path  stroke="#707070" d="M 1637 1165 L 1812 1465" id="v-162" stroke-width="2" stroke-dasharray="30 30" fill="none" style="opacity: 1;"></path><path  fill="black" stroke="black" d="M 0 0 0 0" transform="matrix(0.5029033723056147,0.8643426393066816,-0.8643426393066816,0.5029033723056147,1637.280029296875,1165)"></path><path  fill="#707070" stroke="#707070" d="M 20 0 L 0 10 L 20 20 z" id="v-164" transform="matrix(-0.5029034298527058,-0.8643426058238624,0.8643426058238624,-0.5029034298527058,1803.1866336309133,1470.0290277395782)" style="opacity: 1;"></path><path  d="M 1637 1165 L 1812 1465" id="v-163" fill="none" style="cursor: auto; pointer-events: visiblepainted;"></path><g ><g id="v-156"  label-idx="0" cursor="move" transform="matrix(1,0,0,1,1724.5,1315)" style="cursor: default; opacity: 1;"><rect joint-selector="rect" id="v-159" fill="#ffffff" rx="3" ry="3" pointer-events="none" width="140.4739990234375" height="59.82623291015625" transform="matrix(1,0,0,1,-68.9,-29.9)"></rect><text joint-selector="text" id="v-158" font-size="24px" xml:space="preserve" y="0.8em" fill="#707070" text-anchor="middle" pointer-events="none" font-family="Open Sans" font-weight="normal" transform="matrix(1,0,0,1,0,-23.7)"><tspan dy="0" >sends</tspan><tspan dy="1.2em" x="0" >notifications</tspan></text></g><g id="v-157"  label-idx="1" cursor="move" transform="matrix(1,0,0,1,1714.5,1355.800048828125)" style="cursor: default; opacity: 1;"><rect joint-selector="rect" id="v-161" fill="#ffffff" rx="3" ry="3"  width="0" height="0" transform="matrix(1,0,0,1,0,0)" display="none"></rect><text joint-selector="text" id="v-160" fill="#000000" font-size="14" text-anchor="middle" pointer-events="none"></text></g></g><g  display="none" style="display: none;"></g><g  id="v-166" display="none"><g  id="v-154"><path  end="source" d="M 26 0 L 0 13 L 26 26 z"></path></g><g  id="v-155"><path  end="target" d="M 26 0 L 0 13 L 26 26 z"></path></g></g><g  id="v-165" display="none"><g  id="v-153" transform="translate(1657.1548410209634, 1199.5511560359373) "><g  event="remove"><circle r="11"></circle><path transform="scale(.8) translate(-16, -16)" d="M24.778,21.419 19.276,15.917 24.777,10.415 21.949,7.585 16.447,13.087 10.945,7.585 8.117,10.415 13.618,15.917 8.116,21.419 10.946,24.248 16.447,18.746 21.948,24.248z"></path><title>Remove link.</title></g><g  event="link:options"><circle r="11" transform="translate(25)"></circle><path fill="white" transform="scale(.55) translate(29, -16)" d="M31.229,17.736c0.064-0.571,0.104-1.148,0.104-1.736s-0.04-1.166-0.104-1.737l-4.377-1.557c-0.218-0.716-0.504-1.401-0.851-2.05l1.993-4.192c-0.725-0.91-1.549-1.734-2.458-2.459l-4.193,1.994c-0.647-0.347-1.334-0.632-2.049-0.849l-1.558-4.378C17.165,0.708,16.588,0.667,16,0.667s-1.166,0.041-1.737,0.105L12.707,5.15c-0.716,0.217-1.401,0.502-2.05,0.849L6.464,4.005C5.554,4.73,4.73,5.554,4.005,6.464l1.994,4.192c-0.347,0.648-0.632,1.334-0.849,2.05l-4.378,1.557C0.708,14.834,0.667,15.412,0.667,16s0.041,1.165,0.105,1.736l4.378,1.558c0.217,0.715,0.502,1.401,0.849,2.049l-1.994,4.193c0.725,0.909,1.549,1.733,2.459,2.458l4.192-1.993c0.648,0.347,1.334,0.633,2.05,0.851l1.557,4.377c0.571,0.064,1.148,0.104,1.737,0.104c0.588,0,1.165-0.04,1.736-0.104l1.558-4.377c0.715-0.218,1.399-0.504,2.049-0.851l4.193,1.993c0.909-0.725,1.733-1.549,2.458-2.458l-1.993-4.193c0.347-0.647,0.633-1.334,0.851-2.049L31.229,17.736zM16,20.871c-2.69,0-4.872-2.182-4.872-4.871c0-2.69,2.182-4.872,4.872-4.872c2.689,0,4.871,2.182,4.871,4.872C20.871,18.689,18.689,20.871,16,20.871z"></path><title>Link options.</title></g></g></g></g><!--z-index:32--><g   id="j_16" ><path  stroke="#707070" d="M 1775 1144 L 2450 1531" id="v-179" stroke-width="2" stroke-dasharray="30 30" fill="none" style="opacity: 1;"></path><path  fill="black" stroke="black" d="M 0 0 0 0" transform="matrix(0.86769677747032,0.4970938566987345,-0.4970938566987345,0.86769677747032,1775,1143.9000244140625)"></path><path  fill="#707070" stroke="#707070" d="M 20 0 L 0 10 L 20 20 z" id="v-181" transform="matrix(-0.8676967278262775,-0.49709394335434315,0.49709394335434315,-0.8676967278262775,2445.0290258915943,1539.2769350321187)" style="opacity: 1;"></path><path  d="M 1775 1144 L 2450 1531" id="v-180" fill="none" style="cursor: auto; pointer-events: visiblepainted;"></path><g ><g id="v-173"  label-idx="0" cursor="move" transform="matrix(1,0,0,1,2112.5,1337.5)" style="cursor: default; opacity: 1;"><rect joint-selector="rect" id="v-176" fill="#ffffff" rx="3" ry="3" pointer-events="none" width="193.4222869873047" height="31.026233673095703" transform="matrix(1,0,0,1,-95.4,-15.5)"></rect><text joint-selector="text" id="v-175" font-size="24px" xml:space="preserve" y="0.8em" fill="#707070" text-anchor="middle" pointer-events="none" font-family="Open Sans" font-weight="normal" transform="matrix(1,0,0,1,0,-9.3)"><tspan dy="0" >delivers websites</tspan></text></g><g id="v-174"  label-idx="1" cursor="move" transform="matrix(1,0,0,1,2102.5,1363.9000244140625)" style="cursor: default; opacity: 1;"><rect joint-selector="rect" id="v-178" fill="#ffffff" rx="3" ry="3"  width="0" height="0" transform="matrix(1,0,0,1,0,0)" display="none"></rect><text joint-selector="text" id="v-177" fill="#000000" font-size="14" text-anchor="middle" pointer-events="none"></text></g></g><g  display="none" style="display: none;"></g><g  id="v-183" display="none"><g  id="v-171"><path  end="source" d="M 26 0 L 0 13 L 26 26 z"></path></g><g  id="v-172"><path  end="target" d="M 26 0 L 0 13 L 26 26 z"></path></g></g><g  id="v-182" display="none"><g  id="v-170" transform="translate(1809.7012171472588, 1163.8953644977616) "><g  event="remove"><circle r="11"></circle><path transform="scale(.8) translate(-16, -16)" d="M24.778,21.419 19.276,15.917 24.777,10.415 21.949,7.585 16.447,13.087 10.945,7.585 8.117,10.415 13.618,15.917 8.116,21.419 10.946,24.248 16.447,18.746 21.948,24.248z"></path><title>Remove link.</title></g><g  event="link:options"><circle r="11" transform="translate(25)"></circle><path fill="white" transform="scale(.55) translate(29, -16)" d="M31.229,17.736c0.064-0.571,0.104-1.148,0.104-1.736s-0.04-1.166-0.104-1.737l-4.377-1.557c-0.218-0.716-0.504-1.401-0.851-2.05l1.993-4.192c-0.725-0.91-1.549-1.734-2.458-2.459l-4.193,1.994c-0.647-0.347-1.334-0.632-2.049-0.849l-1.558-4.378C17.165,0.708,16.588,0.667,16,0.667s-1.166,0.041-1.737,0.105L12.707,5.15c-0.716,0.217-1.401,0.502-2.05,0.849L6.464,4.005C5.554,4.73,4.73,5.554,4.005,6.464l1.994,4.192c-0.347,0.648-0.632,1.334-0.849,2.05l-4.378,1.557C0.708,14.834,0.667,15.412,0.667,16s0.041,1.165,0.105,1.736l4.378,1.558c0.217,0.715,0.502,1.401,0.849,2.049l-1.994,4.193c0.725,0.909,1.549,1.733,2.459,2.458l4.192-1.993c0.648,0.347,1.334,0.633,2.05,0.851l1.557,4.377c0.571,0.064,1.148,0.104,1.737,0.104c0.588,0,1.165-0.04,1.736-0.104l1.558-4.377c0.715-0.218,1.399-0.504,2.049-0.851l4.193,1.993c0.909-0.725,1.733-1.549,2.458-2.458l-1.993-4.193c0.347-0.647,0.633-1.334,0.851-2.049L31.229,17.736zM16,20.871c-2.69,0-4.872-2.182-4.872-4.871c0-2.69,2.182-4.872,4.872-4.872c2.689,0,4.871,2.182,4.871,4.872C20.871,18.689,18.689,20.871,16,20.871z"></path><title>Link options.</title></g></g></g></g><!--z-index:33--><g   id="j_17" ><path  stroke="#707070" d="M 1050 551 L 1388 865" id="v-196" stroke-width="2" stroke-dasharray="30 30" fill="none" style="opacity: 1;"></path><path  fill="black" stroke="black" d="M 0 0 0 0" transform="matrix(0.7327873441550872,0.6804577196609161,-0.6804577196609161,0.7327873441550872,1050,550.7100219726562)"></path><path  fill="#707070" stroke="#707070" d="M 20 0 L 0 10 L 20 20 z" id="v-198" transform="matrix(-0.7327872988508725,-0.680457768449183,0.680457768449183,-0.7327872988508725,1381.655375382142,872.3278852433131)" style="opacity: 1;"></path><path  d="M 1050 551 L 1388 865" id="v-197" fill="none" style="cursor: auto; pointer-events: visiblepainted;"></path><g ><g id="v-190"  label-idx="0" cursor="move" transform="matrix(1,0,0,1,1219,708)" style="cursor: default; opacity: 1;"><rect joint-selector="rect" id="v-193" fill="#ffffff" rx="3" ry="3" pointer-events="none" width="104.12545776367188" height="59.82623291015625" transform="matrix(1,0,0,1,-50.7,-29.9)"></rect><text joint-selector="text" id="v-192" font-size="24px" xml:space="preserve" y="0.8em" fill="#707070" text-anchor="middle" pointer-events="none" font-family="Open Sans" font-weight="normal" transform="matrix(1,0,0,1,0,-23.7)"><tspan dy="0" >manages</tspan><tspan dy="1.2em" x="0" >platform</tspan></text></g><g id="v-191"  label-idx="1" cursor="move" transform="matrix(1,0,0,1,1209,748.7999877929688)" style="cursor: default; opacity: 1;"><rect joint-selector="rect" id="v-195" fill="#ffffff" rx="3" ry="3"  width="0" height="0" transform="matrix(1,0,0,1,0,0)" display="none"></rect><text joint-selector="text" id="v-194" fill="#000000" font-size="14" text-anchor="middle" pointer-events="none"></text></g></g><g  display="none" style="display: none;"></g><g  id="v-200" display="none"><g  id="v-188"><path  end="source" d="M 26 0 L 0 13 L 26 26 z"></path></g><g  id="v-189"><path  end="target" d="M 26 0 L 0 13 L 26 26 z"></path></g></g><g  id="v-199" display="none"><g  id="v-187" transform="translate(1079.305562817114, 578.2246944514018) "><g  event="remove"><circle r="11"></circle><path transform="scale(.8) translate(-16, -16)" d="M24.778,21.419 19.276,15.917 24.777,10.415 21.949,7.585 16.447,13.087 10.945,7.585 8.117,10.415 13.618,15.917 8.116,21.419 10.946,24.248 16.447,18.746 21.948,24.248z"></path><title>Remove link.</title></g><g  event="link:options"><circle r="11" transform="translate(25)"></circle><path fill="white" transform="scale(.55) translate(29, -16)" d="M31.229,17.736c0.064-0.571,0.104-1.148,0.104-1.736s-0.04-1.166-0.104-1.737l-4.377-1.557c-0.218-0.716-0.504-1.401-0.851-2.05l1.993-4.192c-0.725-0.91-1.549-1.734-2.458-2.459l-4.193,1.994c-0.647-0.347-1.334-0.632-2.049-0.849l-1.558-4.378C17.165,0.708,16.588,0.667,16,0.667s-1.166,0.041-1.737,0.105L12.707,5.15c-0.716,0.217-1.401,0.502-2.05,0.849L6.464,4.005C5.554,4.73,4.73,5.554,4.005,6.464l1.994,4.192c-0.347,0.648-0.632,1.334-0.849,2.05l-4.378,1.557C0.708,14.834,0.667,15.412,0.667,16s0.041,1.165,0.105,1.736l4.378,1.558c0.217,0.715,0.502,1.401,0.849,2.049l-1.994,4.193c0.725,0.909,1.549,1.733,2.459,2.458l4.192-1.993c0.648,0.347,1.334,0.633,2.05,0.851l1.557,4.377c0.571,0.064,1.148,0.104,1.737,0.104c0.588,0,1.165-0.04,1.736-0.104l1.558-4.377c0.715-0.218,1.399-0.504,2.049-0.851l4.193,1.993c0.909-0.725,1.733-1.549,2.458-2.458l-1.993-4.193c0.347-0.647,0.633-1.334,0.851-2.049L31.229,17.736zM16,20.871c-2.69,0-4.872-2.182-4.872-4.871c0-2.69,2.182-4.872,4.872-4.872c2.689,0,4.871,2.182,4.871,4.872C20.871,18.689,18.689,20.871,16,20.871z"></path><title>Link options.</title></g></g></g></g><!--z-index:34--></g><g ></g><g ></g><g ></g></g></svg>